<?xml version="1.0" encoding="UTF-8" standalone="no"?>
<svg
   width="56"
   height="40"
   viewBox="0 0 56 40"
   fill="none"
   version="1.1"
   id="svg17"
   sodipodi:docname="logo.svg"
   inkscape:version="1.4.2 (f4327f4, 2025-05-13)"
   xmlns:inkscape="http://www.inkscape.org/namespaces/inkscape"
   xmlns:sodipodi="http://sodipodi.sourceforge.net/DTD/sodipodi-0.dtd"
   xmlns="http://www.w3.org/2000/svg"
   xmlns:svg="http://www.w3.org/2000/svg">
  <sodipodi:namedview
     id="namedview17"
     pagecolor="#ffffff"
     bordercolor="#000000"
     borderopacity="0.25"
     inkscape:showpageshadow="2"
     inkscape:pageopacity="0.0"
     inkscape:pagecheckerboard="0"
     inkscape:deskcolor="#d1d1d1"
     showgrid="false"
     inkscape:zoom="4.7068966"
     inkscape:cx="9.029304"
     inkscape:cy="20.076923"
     inkscape:window-width="1920"
     inkscape:window-height="991"
     inkscape:window-x="-9"
     inkscape:window-y="-9"
     inkscape:window-maximized="1"
     inkscape:current-layer="svg17" />
  <path
     d="m 10.376,22.863 c 0,-1.446 0,-2.892 0.012,-4.35 0.054,0.009 0.099,0.028 0.139,0.053 0.269,0.162 0.544,0.315 0.837,0.446 0.217,0.098 0.433,0.198 0.645,0.304 1.153,0.574 2.302,1.152 3.456,1.723 0.749,0.371 1.499,0.739 2.257,1.096 1.335,0.629 2.669,1.259 3.982,1.919 1.318,0.662 2.649,1.307 3.98,1.95 1.224,0.591 2.455,1.174 3.691,1.749 0.657,0.305 1.306,0.622 1.96,0.933 0.072,0.035 0.139,0.078 0.225,0.097 0.031,-0.048 0.021,-0.094 0.015,-0.153 0.009,-0.636 0.015,-1.259 0.02,-1.882 0.012,-1.582 0.022,-3.164 0.033,-4.745 0.008,-1.147 0.016,-2.295 0.023,-3.442 0,-0.037 -0.005,-0.073 -0.008,-0.115 -0.087,0.012 -0.147,-0.025 -0.21,-0.054 -0.932,-0.434 -1.865,-0.865 -2.795,-1.302 -0.851,-0.4 -1.703,-0.801 -2.547,-1.212 -1.61,-0.784 -3.215,-1.576 -4.823,-2.364 -0.048,-0.024 -0.099,-0.043 -0.156,-0.071 -0.045,-0.029 -0.083,-0.047 -0.129,-0.02 -0.023,0.013 -0.049,0.022 -0.074,0.034 -1.322,0.609 -2.634,1.232 -3.936,1.87 -0.795,0.389 -1.586,0.782 -2.383,1.169 -1.344,0.653 -2.705,1.283 -4.076,1.894 -0.045,0.02 -0.092,0.035 -0.138,0.052 0,-1.408 0,-2.816 0.012,-4.233 0.063,-0.029 0.115,-0.044 0.163,-0.068 0.693,-0.338 1.385,-0.679 2.079,-1.017 1.818,-0.887 3.636,-1.776 5.457,-2.659 0.928,-0.45 1.863,-0.88797 2.795,-1.33097 0.058,-0.028 0.111,-0.067 0.19,-0.059 0.036,0.022 0.065,0.036 0.094,0.05 0.873,0.416 1.749,0.827 2.617,1.24897 2.334,1.133 4.662,2.275 6.976,3.438 0.274,0.137 0.548,0.276 0.822,0.414 0.031,0.015 0.062,0.045 0.112,0.015 0,-0.033 0,-0.07 0.003,-0.119 0.005,-0.075 0.006,-0.136 0.007,-0.197 0.02,-1.675 0.005,-3.349 -0.034,-5.02397 -0.013,-0.551 -0.038,-1.103 -0.049,-1.655 -0.012,-0.651 -0.015,-1.302 -0.021,-1.953 0,-0.037 0.006,-0.075 0.009,-0.112 2.143,0 4.286,0 6.451,0.007 0.067,0.029 0.109,0.053 0.153,0.072 0.996,0.441 1.992,0.883 2.989,1.322 1.077,0.474 2.155,0.946 3.233,1.418 0.87,0.38 1.741,0.759 2.612,1.138 0.035,0.015 0.071,0.026 0.107,0.038 0,1.37097 0,2.74097 -0.012,4.12297 -0.767,-0.308 -1.522,-0.628 -2.277,-0.949 -1.009,-0.43 -2.023,-0.852 -3.026,-1.292 -1.633,-0.718 -3.266,-1.43497 -4.911,-2.13297 -0.055,-0.024 -0.112,-0.042 -0.175,-0.07 -0.082,-0.037 -0.157,-0.066 -0.241,-0.099 -0.012,0.006 -0.015,0.015 -0.022,0.037 -0.003,1.87197 -0.004,3.73097 -0.004,5.58997 0,0.028 0.005,0.055 0.008,0.084 0.048,0.022 0.091,0.044 0.136,0.063 0.853,0.375 1.707,0.748 2.56,1.123 1.529,0.672 3.056,1.345 4.586,2.014 1.083,0.474 2.17,0.942 3.256,1.412 0.039,0.017 0.081,0.029 0.122,0.043 0,1.399 0,2.797 -0.012,4.208 -0.36,-0.141 -0.708,-0.292 -1.055,-0.445 -1.33,-0.586 -2.664,-1.166 -3.988,-1.761 C 40.487,20.399 38.871,19.684 37.236,19 37.066,18.929 36.893,18.861 36.713,18.786 36.649,18.759 36.594,18.738 36.532,18.711 36.504,18.7 36.49,18.704 36.49,18.739 c -0.004,0.07 -0.004,0.126 -0.004,0.183 0,5.673 0,11.347 -10e-4,17.02 0,0.061 -0.003,0.123 -0.011,0.187 -0.014,0.008 -0.019,0.015 -0.021,0.023 -1.616,0 -3.232,0 -4.861,-0.013 -0.014,-0.973 -0.013,-1.932 -0.013,-2.892 0,-0.033 -0.005,-0.066 -0.004,-0.11 0,-0.033 -0.004,-0.056 -0.007,-0.08 -0.066,0.007 -0.111,0.037 -0.159,0.061 -2.018,0.989 -4.036,1.979 -6.054,2.969 -0.038,0.019 -0.071,0.043 -0.107,0.065 -2.827,0 -5.654,0 -8.5,-0.009 -0.047,-0.025 -0.075,-0.04 -0.104,-0.054 -1.099,-0.539 -2.198,-1.079 -3.297,-1.618 -0.925,-0.454 -1.849,-0.907 -2.775,-1.36 -0.062,-0.03 -0.119,-0.072 -0.196,-0.076 0,-1.398 0,-2.797 0.014,-4.207 0.061,-0.019 0.107,-0.037 0.162,-0.01 1.68,0.859 3.363,1.697 5.056,2.518 1.757,0.852 3.518,1.698 5.277,2.546 0.048,0.023 0.098,0.044 0.148,0.067 0.029,-0.014 0.054,-0.023 0.077,-0.036 0.027,-0.016 0.052,-0.035 0.089,-0.054 0.884,-0.464 1.772,-0.905 2.677,-1.322 1.028,-0.473 2.036,-0.975 3.024,-1.504 0.042,-0.022 0.082,-0.047 0.131,-0.076 -0.036,-0.022 -0.061,-0.04 -0.088,-0.055 -0.228,-0.121 -0.453,-0.244 -0.684,-0.36 -0.237,-0.117 -0.483,-0.22 -0.717,-0.34 C 25.245,30.049 24.957,29.886 24.665,29.727 24.561,29.671 24.46,29.612 24.354,29.56 22.094,28.448 19.824,27.353 17.54,26.277 15.956,25.531 14.368,24.791 12.797,24.024 12.051,23.66 11.304,23.295 10.558,22.931 10.5,22.903 10.449,22.862 10.376,22.863 Z"
     fill="#ffffff"
     id="path2" />
  <path
     d="m 36.9449,18.821 c 0.171,0.069 0.344,0.136 0.514,0.208 1.635,0.684 3.252,1.399 4.862,2.123 1.324,0.596 2.658,1.176 3.988,1.762 0.347,0.153 0.695,0.304 1.055,0.458 0.012,4.268 0.012,8.535 0.012,12.809 -3.466,0 -6.933,0 -10.415,-0.013 -0.016,-0.736 -0.016,-1.458 -0.016,-2.18 0,-5.056 0,-10.112 0,-15.167 z"
     fill="#ef5f13"
     id="path3" />
  <path
     d="m 31.815,5.21008 c 0.013,0.038 0.007,0.075 0.008,0.113 0.006,0.651 0.008,1.302 0.02,1.953 0.011,0.552 0.036,1.103 0.049,1.655 0.039,1.67402 0.054,3.34902 0.034,5.02302 -10e-4,0.062 -0.002,0.123 -0.018,0.195 -0.039,0.002 -0.066,-0.006 -0.09,-0.019 -0.367,-0.187 -0.734,-0.376 -1.102,-0.561 -0.273,-0.138 -0.55,-0.27 -0.824,-0.406 -0.293,-0.146 -0.585,-0.293 -0.878,-0.44 -0.158,-0.079 -0.316,-0.159 -0.475,-0.237 -0.221,-0.11 -0.443,-0.219 -0.665,-0.328 -0.178,-0.087 -0.357,-0.173 -0.536,-0.261 -0.221,-0.109 -0.442,-0.219 -0.664,-0.328 -0.183,-0.091 -0.367,-0.179 -0.55,-0.269 -0.237,-0.115 -0.473,-0.231 -0.71,-0.347 -0.115,-0.057 -0.23,-0.115 -0.346,-0.171 -0.174,-0.085 -0.349,-0.168 -0.524,-0.252 -0.107,-0.051 -0.214,-0.101 -0.32,-0.153 -0.199,-0.096 -0.396,-0.194 -0.595,-0.289 -0.189,-0.09102 -0.38,-0.17902 -0.569,-0.27002 -0.233,-0.111 -0.466,-0.223 -0.699,-0.334 -0.145,-0.07 -0.29,-0.142 -0.435,-0.211 -0.122,-0.058 -0.246,-0.113 -0.367,-0.171 -0.072,-0.034 -0.144,-0.05 -0.222,-0.015 -0.014,0.007 -0.033,0.006 -0.049,0.009 -0.072,10e-4 -0.125,0.04 -0.183,0.067 -0.932,0.443 -1.867,0.88202 -2.795,1.33102 -1.821,0.883 -3.639,1.772 -5.457,2.659 -0.694,0.339 -1.386,0.679 -2.079,1.018 -0.048,0.023 -0.1,0.039 -0.163,0.054 -0.012,-3.006 -0.012,-6.00802 -0.012,-9.01502 7.067,0 14.134,0 21.216,0 z"
     fill="#ef5f13"
     id="path4" />
  <path
     d="m 10.599,22.904 c 0.073,-0.013 0.124,0.027 0.182,0.055 0.747,0.364 1.493,0.729 2.239,1.093 1.571,0.767 3.159,1.507 4.743,2.253 2.284,1.076 4.554,2.171 6.814,3.283 0.106,0.052 0.207,0.111 0.311,0.168 0.292,0.158 0.58,0.322 0.877,0.474 0.234,0.12 0.481,0.223 0.717,0.341 0.231,0.115 0.456,0.239 0.684,0.359 0.028,0.015 0.052,0.033 0.088,0.056 -0.049,0.028 -0.089,0.053 -0.131,0.075 -0.988,0.529 -1.996,1.031 -3.024,1.504 -0.905,0.417 -1.793,0.858 -2.69,1.321 C 21.347,33.878 21.307,33.873 21.273,33.859 21.179,33.817 21.088,33.771 20.996,33.726 20.808,33.634 20.62,33.542 20.432,33.45 20.292,33.381 20.151,33.313 20.011,33.245 19.856,33.17 19.702,33.094 19.546,33.02 19.352,32.927 19.155,32.838 18.962,32.744 18.715,32.624 18.472,32.499 18.225,32.38 17.949,32.246 17.67,32.117 17.393,31.985 17.062,31.828 16.732,31.669 16.402,31.511 16.301,31.462 16.2,31.412 16.099,31.362 c -0.217,-0.107 -0.432,-0.216 -0.65,-0.322 -0.256,-0.124 -0.515,-0.245 -0.771,-0.37 -0.227,-0.111 -0.451,-0.227 -0.677,-0.339 -0.212,-0.105 -0.425,-0.208 -0.636,-0.313 -0.341,-0.17 -0.682,-0.342 -1.022,-0.513 -0.253,-0.128 -0.506,-0.257 -0.76,-0.386 -0.181,-0.092 -0.362,-0.187 -0.545,-0.276 -0.086,-0.041 -0.179,-0.051 -0.27,-0.004 -0.048,-0.02 -0.094,-0.002 -0.155,0.004 -0.014,-1.976 -0.014,-3.951 -0.014,-5.939 z"
     fill="#ef5f13"
     id="path5" />
  <path
     d="m 36.982,8.89209 c 0.056,0.02 0.113,0.038 0.168,0.061 1.645,0.699 3.278,1.41601 4.911,2.13401 1.003,0.44 2.017,0.862 3.027,1.292 0.754,0.321 1.509,0.641 2.276,0.962 0.012,1.882 0.012,3.762 -10e-4,5.655 -0.06,-10e-4 -0.109,-0.01 -0.153,-0.029 -0.169,-0.073 -0.335,-0.151 -0.504,-0.225 -0.423,-0.184 -0.847,-0.366 -1.27,-0.55 -0.363,-0.158 -0.732,-0.305 -1.091,-0.47 -0.438,-0.201 -0.886,-0.385 -1.329,-0.577 -0.249,-0.108 -0.496,-0.218 -0.744,-0.327 -0.228,-0.1 -0.456,-0.201 -0.684,-0.302 -0.198,-0.088 -0.396,-0.176 -0.594,-0.264 -0.257,-0.114 -0.516,-0.226 -0.774,-0.34 -0.188,-0.083 -0.375,-0.168 -0.563,-0.251 -0.258,-0.114 -0.516,-0.227 -0.774,-0.341 -0.263,-0.115 -0.526,-0.231 -0.789,-0.346 -0.323,-0.141 -0.646,-0.282 -0.97,-0.422 -0.195,-0.085 -0.179,-0.059 -0.179,-0.246 0,-1.746 0,-3.493 0,-5.24001 0,-0.038 -0.003,-0.076 0.003,-0.113 0.003,-0.021 0.022,-0.041 0.034,-0.061 z"
     fill="#ef5f13"
     id="path6" />
  <path
     d="m 38.627,5.21008 c 2.913,0 5.826,0 8.749,0 0,1.276 0,2.552 -0.013,3.841 -0.065,-0.003 -0.119,-0.015 -0.168,-0.036 -0.224,-0.096 -0.446,-0.196 -0.669,-0.294 -0.262,-0.115 -0.524,-0.231 -0.787,-0.345 -0.342,-0.15 -0.685,-0.298 -1.027,-0.447 -0.204,-0.089 -0.406,-0.179 -0.61,-0.269 -0.301,-0.132 -0.603,-0.266 -0.905,-0.398 -0.373,-0.162 -0.746,-0.324 -1.119,-0.485 -0.149,-0.065 -0.299,-0.126 -0.447,-0.192 -0.301,-0.133 -0.601,-0.27 -0.901,-0.404 -0.178,-0.08 -0.355,-0.159 -0.534,-0.238 -0.277,-0.122 -0.554,-0.243 -0.831,-0.365 -0.223,-0.098 -0.446,-0.197 -0.668,-0.296 -0.02,-0.009 -0.04,-0.019 -0.054,-0.032 -0.01,-0.01 -0.011,-0.026 -0.016,-0.04 z"
     fill="#ef5f13"
     id="path7" />
  <path
     d="m 10.599,33.0761 c 0.077,-0.01 0.134,0.032 0.196,0.062 0.926,0.453 1.85,0.907 2.775,1.36 1.099,0.539 2.198,1.079 3.297,1.618 0.029,0.014 0.057,0.03 0.089,0.054 -2.114,0.009 -4.231,0.009 -6.357,0.009 0,-1.03 0,-2.06 0,-3.103 z"
     fill="#ef5f13"
     id="path8" />
  <path
     d="m 31.795,33.176 c 0.002,0.033 0.007,0.066 0.007,0.098 0,0.96 -0.001,1.92 -0.003,2.893 -2.021,0.013 -4.041,0.013 -6.075,0.003 0.01,-0.028 0.032,-0.049 0.059,-0.064 0.046,-0.025 0.097,-0.046 0.145,-0.07 0.169,-0.083 0.337,-0.166 0.507,-0.248 0.174,-0.085 0.349,-0.167 0.522,-0.253 0.275,-0.136 0.546,-0.275 0.821,-0.411 0.236,-0.116 0.475,-0.228 0.711,-0.345 0.222,-0.109 0.44,-0.223 0.662,-0.332 0.313,-0.153 0.63,-0.303 0.944,-0.456 0.246,-0.12 0.49,-0.244 0.736,-0.365 0.284,-0.14 0.569,-0.278 0.855,-0.416 0.033,-0.016 0.073,-0.023 0.109,-0.034 z"
     fill="#ef5f13"
     id="path9" />
  <path
     d="m 36.975,8.88299 c -0.005,0.028 -0.024,0.048 -0.028,0.069 -0.005,0.037 -0.002,0.075 -0.002,0.113 0,1.74701 0,3.49401 0,5.24001 0,0.187 -0.016,0.161 0.179,0.246 0.323,0.14 0.647,0.281 0.97,0.422 0.263,0.115 0.526,0.231 0.789,0.347 0.258,0.113 0.516,0.226 0.773,0.34 0.189,0.083 0.376,0.168 0.564,0.251 0.258,0.114 0.516,0.226 0.774,0.34 0.198,0.088 0.396,0.176 0.594,0.264 0.228,0.101 0.456,0.202 0.684,0.302 0.248,0.109 0.495,0.219 0.744,0.327 0.443,0.192 0.891,0.376 1.329,0.577 0.359,0.165 0.728,0.313 1.091,0.47 0.423,0.184 0.847,0.366 1.27,0.55 0.168,0.074 0.335,0.152 0.504,0.225 0.044,0.019 0.093,0.029 0.153,0.043 0.013,0.039 0.013,0.078 0.013,0.13 -0.041,-0.003 -0.083,-0.015 -0.122,-0.032 -1.086,-0.47 -2.173,-0.938 -3.256,-1.412 -1.53,-0.669 -3.057,-1.342 -4.586,-2.014 -0.853,-0.374 -1.707,-0.748 -2.56,-1.123 -0.045,-0.019 -0.088,-0.04 -0.136,-0.063 -0.003,-0.029 -0.007,-0.056 -0.007,-0.084 0,-1.859 0,-3.718 0.009,-5.59201 0.017,-0.019 0.022,-0.025 0.025,-0.032 0.075,0.03 0.15,0.059 0.232,0.096 z"
     fill="#dd5d19"
     id="path10" />
  <path
     d="m 38.612,5.21008 c 0.02,0.014 0.021,0.03 0.031,0.04 0.014,0.013 0.034,0.023 0.054,0.032 0.222,0.099 0.445,0.198 0.668,0.296 0.277,0.122 0.554,0.243 0.831,0.365 0.179,0.079 0.356,0.158 0.534,0.238 0.3,0.134 0.6,0.271 0.901,0.404 0.148,0.066 0.298,0.127 0.447,0.192 0.373,0.161 0.746,0.323 1.119,0.485 0.302,0.132 0.604,0.266 0.905,0.398 0.204,0.09 0.406,0.18 0.61,0.269 0.342,0.149 0.685,0.297 1.027,0.447 0.263,0.114 0.525,0.23 0.787,0.345 0.223,0.098 0.445,0.198 0.669,0.294 0.049,0.021 0.103,0.033 0.168,0.049 0.013,0.04 0.013,0.079 0.013,0.13 -0.036,-10e-4 -0.073,-0.012 -0.107,-0.027 -0.871,-0.379 -1.742,-0.757 -2.612,-1.138 -1.079,-0.471 -2.156,-0.943 -3.233,-1.417 -0.997,-0.439 -1.993,-0.881 -2.989,-1.322 -0.044,-0.02 -0.087,-0.043 -0.137,-0.072 0.095,-0.008 0.197,-0.008 0.314,-0.008 z"
     fill="#de5f1c"
     id="path11" />
  <path
     d="m 31.798,33.1661 c -0.04,0.022 -0.079,0.029 -0.112,0.044 -0.286,0.138 -0.571,0.277 -0.855,0.417 -0.246,0.121 -0.49,0.245 -0.736,0.365 -0.314,0.153 -0.631,0.303 -0.945,0.456 -0.222,0.109 -0.44,0.223 -0.661,0.332 -0.236,0.117 -0.475,0.229 -0.711,0.345 -0.275,0.136 -0.547,0.275 -0.821,0.411 -0.173,0.086 -0.348,0.168 -0.523,0.253 -0.169,0.082 -0.337,0.165 -0.506,0.248 -0.048,0.024 -0.099,0.044 -0.145,0.07 -0.027,0.014 -0.049,0.036 -0.075,0.064 -0.07,0.01 -0.139,0.01 -0.222,0.01 0.021,-0.022 0.054,-0.047 0.092,-0.065 2.018,-0.991 4.036,-1.98 6.054,-2.97 0.048,-0.024 0.093,-0.053 0.159,-0.061 0.003,0.025 0.007,0.047 0.007,0.081 z"
     fill="#df6321"
     id="path12" />
  <path
     d="m 31.798,28.6581 c -0.07,-0.011 -0.14,-0.03 -0.202,-0.059 -0.195,-0.092 -0.386,-0.19 -0.58,-0.283 -0.209,-0.1 -0.42,-0.197 -0.63,-0.296 -0.122,-0.058 -0.242,-0.118 -0.363,-0.176 -0.112,-0.054 -0.223,-0.108 -0.336,-0.16 -0.132,-0.062 -0.265,-0.121 -0.398,-0.182 -0.19,-0.089 -0.38,-0.179 -0.571,-0.268 -0.132,-0.062 -0.266,-0.121 -0.398,-0.183 -0.318,-0.148 -0.637,-0.294 -0.953,-0.445 -0.247,-0.119 -0.49,-0.245 -0.737,-0.364 -0.213,-0.103 -0.43,-0.201 -0.645,-0.302 -0.161,-0.076 -0.32,-0.155 -0.479,-0.233 -0.106,-0.052 -0.211,-0.106 -0.317,-0.158 -0.285,-0.139 -0.57,-0.279 -0.856,-0.417 -0.247,-0.12 -0.497,-0.235 -0.743,-0.357 -0.26,-0.128 -0.516,-0.262 -0.775,-0.392 -0.206,-0.104 -0.414,-0.205 -0.621,-0.308 -0.236,-0.117 -0.47,-0.237 -0.706,-0.353 -0.179,-0.087 -0.361,-0.17 -0.54,-0.258 -0.246,-0.12 -0.49,-0.244 -0.737,-0.364 -0.121,-0.059 -0.245,-0.113 -0.367,-0.171 -0.213,-0.102 -0.426,-0.207 -0.639,-0.309 -0.112,-0.054 -0.225,-0.106 -0.337,-0.158 -0.255,-0.117 -0.512,-0.232 -0.766,-0.352 -0.195,-0.092 -0.386,-0.19 -0.579,-0.284 -0.175,-0.084 -0.351,-0.166 -0.525,-0.251 -0.164,-0.08 -0.328,-0.161 -0.492,-0.242 -0.179,-0.087 -0.358,-0.174 -0.537,-0.262 -0.217,-0.106 -0.435,-0.211 -0.652,-0.319 -0.226,-0.112 -0.451,-0.226 -0.676,-0.339 -0.341,-0.171 -0.681,-0.343 -1.022,-0.514 -0.274,-0.136 -0.55,-0.27 -0.824,-0.406 -0.087,-0.043 -0.169,-0.092 -0.256,-0.134 -0.174,-0.085 -0.351,-0.167 -0.525,-0.251 -0.257,-0.124 -0.525,-0.232 -0.766,-0.379 -0.135,-0.082 -0.269,-0.164 -0.398,-0.243 0.003,-0.048 0.042,-0.054 0.069,-0.066 0.227,-0.101 0.456,-0.2 0.684,-0.303 0.281,-0.126 0.561,-0.254 0.841,-0.383 0.216,-0.099 0.431,-0.198 0.646,-0.3 0.244,-0.115 0.485,-0.233 0.729,-0.348 0.214,-0.101 0.431,-0.199 0.645,-0.301 0.195,-0.093 0.386,-0.19 0.58,-0.284 0.179,-0.087 0.36,-0.17 0.539,-0.258 0.361,-0.179 0.721,-0.36 1.082,-0.538 0.236,-0.117 0.475,-0.229 0.712,-0.345 0.164,-0.081 0.326,-0.164 0.49,-0.245 0.101,-0.05 0.204,-0.097 0.306,-0.146 0.296,-0.143 0.591,-0.287 0.887,-0.429 0.111,-0.054 0.225,-0.105 0.337,-0.157 0.318,-0.148 0.636,-0.297 0.954,-0.445 0.215,-0.1 0.43,-0.2 0.646,-0.3 0.107,-0.05 0.215,-0.101 0.333,-0.156 0.062,0.017 0.113,0.036 0.161,0.059 1.607,0.789 3.213,1.581 4.823,2.365 0.844,0.411 1.695,0.812 2.547,1.212 0.929,0.437 1.863,0.867 2.795,1.301 0.063,0.029 0.123,0.066 0.209,0.055 0.004,0.041 0.009,0.078 0.009,0.114 -0.007,1.148 -0.015,2.295 -0.023,3.442 -0.011,1.582 -0.022,3.163 -0.033,4.745 -0.005,0.623 -0.011,1.246 -0.02,1.883 z"
     fill="#ef5f13"
     id="path13" />
  <path
     d="m 21.2949,9.10304 c 0.009,-0.011 0.027,-0.01 0.041,-0.017 0.079,-0.035 0.15,-0.019 0.223,0.015 0.121,0.058 0.245,0.113 0.366,0.171 0.146,0.069 0.291,0.141 0.436,0.21 0.233,0.112 0.465,0.224 0.699,0.335 0.189,0.09 0.38,0.179 0.569,0.26996 0.199,0.095 0.396,0.193 0.594,0.289 0.107,0.052 0.214,0.102 0.321,0.153 0.174,0.084 0.349,0.167 0.523,0.252 0.116,0.056 0.231,0.114 0.347,0.171 0.236,0.116 0.473,0.232 0.709,0.347 0.184,0.09 0.368,0.178 0.551,0.268 0.222,0.109 0.442,0.22 0.664,0.329 0.178,0.088 0.358,0.174 0.536,0.261 0.222,0.109 0.444,0.218 0.665,0.328 0.159,0.078 0.317,0.158 0.475,0.237 0.293,0.147 0.585,0.294 0.878,0.44 0.274,0.136 0.55,0.268 0.823,0.406 0.369,0.185 0.735,0.374 1.103,0.561 0.024,0.012 0.05,0.021 0.087,0.032 0.01,0.039 0.01,0.076 0.01,0.109 -0.05,0.029 -0.08,0 -0.111,-0.016 -0.275,-0.137 -0.548,-0.276 -0.822,-0.414 -2.314,-1.162 -4.642,-2.304 -6.976,-3.438 -0.869,-0.42196 -1.744,-0.83296 -2.617,-1.24896 -0.029,-0.014 -0.058,-0.028 -0.094,-0.05 z"
     fill="#de5f1c"
     id="path14" />
  <path
     d="m 10.733,28.821 c 0.084,-0.053 0.177,-0.044 0.263,-0.002 0.185,0.089 0.366,0.184 0.548,0.277 0.255,0.129 0.509,0.259 0.764,0.387 0.342,0.173 0.684,0.345 1.026,0.516 0.213,0.106 0.427,0.208 0.64,0.314 0.227,0.113 0.452,0.229 0.679,0.34 0.258,0.126 0.518,0.247 0.776,0.372 0.218,0.107 0.435,0.216 0.652,0.324 0.102,0.05 0.203,0.1 0.306,0.149 0.331,0.16 0.663,0.318 0.995,0.477 0.278,0.132 0.559,0.262 0.836,0.396 0.248,0.12 0.493,0.246 0.74,0.366 0.195,0.094 0.392,0.184 0.588,0.277 0.156,0.075 0.311,0.151 0.467,0.227 0.141,0.068 0.282,0.136 0.423,0.205 0.189,0.092 0.377,0.185 0.567,0.278 0.092,0.045 0.184,0.091 0.278,0.133 0.034,0.015 0.074,0.019 0.125,0.029 -0.013,0.019 -0.038,0.038 -0.065,0.053 -0.023,0.013 -0.049,0.023 -0.078,0.036 -0.05,-0.023 -0.1,-0.044 -0.148,-0.067 -1.768,-0.852 -3.538,-1.701 -5.303,-2.557 -1.701,-0.826 -3.392,-1.667 -5.079,-2.53 z"
     fill="#de5f1c"
     id="path15" />
  <path
     d="m 36.735,8.78503 c 0.005,0.01 0,0.015 -0.014,0.021 -0.002,-0.007 0.002,-0.016 0.014,-0.021 z"
     fill="#e06a2c"
     id="path16" />
  <path
     d="m 36.756,18.738 c -10e-4,0.008 -0.009,0.01 -0.028,0.014 -0.015,-0.021 -0.001,-0.025 0.028,-0.014 z"
     fill="#e06a2c"
     id="path17" />
  <defs
     id="defs17" />
</svg>
