<svg width="290" height="40" viewBox="0 0 290 40" fill="none" xmlns="http://www.w3.org/2000/svg">
<g clip-path="url(#clip0_132_429)">
<path d="M89.026 26.176C89.026 27.208 88.723 28.156 88.116 29.019C87.509 29.863 86.7 30.539 85.688 31.046C84.677 31.552 83.542 31.806 82.284 31.806H61.788V28.991H82.284C83.227 28.991 84.026 28.719 84.677 28.174C85.329 27.611 85.655 26.945 85.655 26.176C85.655 25.406 85.329 24.749 84.677 24.205C84.026 23.642 83.227 23.361 82.284 23.361H68.53C67.294 23.361 66.159 23.107 65.125 22.601C64.114 22.094 63.305 21.418 62.698 20.574C62.092 19.71 61.788 18.763 61.788 17.73C61.788 16.698 62.092 15.76 62.698 14.915C63.305 14.052 64.114 13.367 65.125 12.86C66.159 12.354 67.294 12.1 68.53 12.1H87.34V14.915H68.53C67.609 14.915 66.811 15.197 66.137 15.76C65.485 16.304 65.159 16.961 65.159 17.73C65.159 18.5 65.485 19.166 66.137 19.729C66.811 20.273 67.609 20.545 68.53 20.545H82.284C83.542 20.545 84.677 20.799 85.688 21.306C86.7 21.812 87.509 22.497 88.116 23.361C88.723 24.205 89.026 25.143 89.026 26.176ZM97.778 12.804C97.778 13.386 97.531 13.883 97.037 14.296C96.542 14.709 95.947 14.915 95.25 14.915C94.553 14.915 93.958 14.709 93.463 14.296C92.969 13.883 92.722 13.386 92.722 12.804C92.722 12.222 92.969 11.725 93.463 11.312C93.958 10.899 94.553 10.693 95.25 10.693C95.947 10.693 96.542 10.899 97.037 11.312C97.531 11.725 97.778 12.222 97.778 12.804ZM96.935 31.806H93.564V16.323H96.935V31.806ZM109.312 31.806H105.941V19.138H100.885V16.323H105.941V10.693H109.312V16.323H121.11V19.138H109.312V31.806ZM145.933 21.249C145.933 22.15 145.664 22.976 145.125 23.726C144.607 24.477 143.9 25.078 143 25.528C142.124 25.96 141.136 26.176 140.034 26.176H127.124C127.595 27.001 128.292 27.677 129.213 28.202C130.157 28.728 131.213 28.991 132.382 28.991H143.405V31.806H132.382C131.101 31.806 129.899 31.609 128.776 31.215C127.674 30.802 126.696 30.239 125.842 29.526C125.011 28.812 124.359 27.996 123.887 27.076C123.415 26.138 123.179 25.134 123.179 24.064C123.179 22.995 123.415 22 123.887 21.08C124.359 20.142 125.011 19.316 125.842 18.603C126.696 17.89 127.674 17.336 128.776 16.942C129.899 16.529 131.101 16.323 132.382 16.323H140.034C141.136 16.323 142.124 16.548 143 16.999C143.9 17.43 144.607 18.021 145.125 18.772C145.664 19.504 145.933 20.33 145.933 21.249ZM140.034 23.361C140.731 23.361 141.326 23.154 141.82 22.741C142.316 22.328 142.562 21.831 142.562 21.249C142.562 20.668 142.316 20.17 141.82 19.757C141.326 19.344 140.731 19.138 140.034 19.138H132.382C131.393 19.138 130.483 19.326 129.652 19.701C128.842 20.076 128.168 20.583 127.629 21.221C127.09 21.859 126.753 22.572 126.617 23.361H140.034ZM168.798 13.508H159.46C158.382 13.508 157.404 13.733 156.528 14.183C155.651 14.634 154.944 15.234 154.404 15.985C153.887 16.717 153.629 17.533 153.629 18.434V31.806H150.258V17.73C150.258 16.736 150.505 15.816 150.999 14.972C151.494 14.108 152.168 13.367 153.021 12.748C153.898 12.11 154.887 11.612 155.989 11.256C157.09 10.881 158.247 10.693 159.46 10.693H168.798V13.508ZM175.978 12.804C175.978 13.386 175.731 13.883 175.237 14.296C174.742 14.709 174.146 14.915 173.45 14.915C172.753 14.915 172.158 14.709 171.664 14.296C171.169 13.883 170.922 13.386 170.922 12.804C170.922 12.222 171.169 11.725 171.664 11.312C172.158 10.899 172.753 10.693 173.45 10.693C174.146 10.693 174.742 10.899 175.237 11.312C175.731 11.725 175.978 12.222 175.978 12.804ZM175.136 31.806H171.765V20.545H155.314V17.73H175.136V31.806ZM200.041 31.806H189.019C187.737 31.806 186.535 31.609 185.411 31.215C184.31 30.802 183.333 30.239 182.479 29.526C181.647 28.812 180.995 27.996 180.524 27.076C180.052 26.138 179.816 25.134 179.816 24.064C179.816 22.995 180.052 22 180.524 21.08C180.995 20.142 181.647 19.316 182.479 18.603C183.333 17.89 184.31 17.336 185.411 16.942C186.535 16.529 187.737 16.323 189.019 16.323H200.041V19.138H189.019C187.94 19.138 186.962 19.363 186.086 19.814C185.209 20.264 184.501 20.865 183.962 21.615C183.445 22.347 183.187 23.164 183.187 24.064C183.187 24.965 183.445 25.791 183.962 26.542C184.501 27.273 185.209 27.865 186.086 28.315C186.962 28.765 187.94 28.991 189.019 28.991H200.041V31.806ZM208.968 12.804C208.968 13.386 208.721 13.883 208.227 14.296C207.732 14.709 207.136 14.915 206.44 14.915C205.743 14.915 205.148 14.709 204.653 14.296C204.159 13.883 203.912 13.386 203.912 12.804C203.912 12.222 204.159 11.725 204.653 11.312C205.148 10.899 205.743 10.693 206.44 10.693C207.136 10.693 207.732 10.899 208.227 11.312C208.721 11.725 208.968 12.222 208.968 12.804ZM208.126 31.806H204.755V16.323H208.126V31.806ZM235.57 21.249C235.57 22.15 235.3 22.976 234.761 23.726C234.244 24.477 233.537 25.078 232.637 25.528C231.761 25.96 230.772 26.176 229.67 26.176H216.76C217.232 27.001 217.929 27.677 218.85 28.202C219.794 28.728 220.85 28.991 222.019 28.991H233.042V31.806H222.019C220.738 31.806 219.535 31.609 218.412 31.215C217.31 30.802 216.333 30.239 215.479 29.526C214.648 28.812 213.996 27.996 213.524 27.076C213.052 26.138 212.816 25.134 212.816 24.064C212.816 22.995 213.052 22 213.524 21.08C213.996 20.142 214.648 19.316 215.479 18.603C216.333 17.89 217.31 17.336 218.412 16.942C219.535 16.529 220.738 16.323 222.019 16.323H229.67C230.772 16.323 231.761 16.548 232.637 16.999C233.537 17.43 234.244 18.021 234.761 18.772C235.3 19.504 235.57 20.33 235.57 21.249ZM229.67 23.361C230.367 23.361 230.963 23.154 231.457 22.741C231.952 22.328 232.199 21.831 232.199 21.249C232.199 20.668 231.952 20.17 231.457 19.757C230.963 19.344 230.367 19.138 229.67 19.138H222.019C221.03 19.138 220.12 19.326 219.288 19.701C218.479 20.076 217.805 20.583 217.265 21.221C216.726 21.859 216.389 22.572 216.254 23.361H229.67ZM243.265 31.806H239.894V16.323H252.535C253.817 16.323 255.008 16.529 256.109 16.942C257.233 17.336 258.21 17.89 259.041 18.603C259.895 19.316 260.559 20.142 261.03 21.08C261.502 22 261.738 22.995 261.738 24.064V31.806H258.367V24.064C258.367 23.164 258.109 22.347 257.592 21.615C257.075 20.865 256.367 20.264 255.468 19.814C254.592 19.363 253.614 19.138 252.535 19.138H243.265V31.806ZM273.221 31.806H269.85V19.138H264.793V16.323H269.85V10.693H273.221V16.323H285.019V19.138H273.221V31.806Z" fill="#474747"/>
<path d="M10.376 22.863C10.376 21.417 10.376 19.971 10.388 18.513C10.442 18.522 10.487 18.541 10.527 18.566C10.796 18.728 11.071 18.881 11.364 19.012C11.581 19.11 11.797 19.21 12.009 19.316C13.162 19.89 14.311 20.468 15.465 21.039C16.214 21.41 16.964 21.778 17.722 22.135C19.057 22.764 20.391 23.394 21.704 24.054C23.022 24.716 24.353 25.361 25.684 26.004C26.908 26.595 28.139 27.178 29.375 27.753C30.032 28.058 30.681 28.375 31.335 28.686C31.407 28.721 31.474 28.764 31.56 28.783C31.591 28.735 31.581 28.689 31.575 28.63C31.584 27.994 31.59 27.371 31.595 26.748C31.607 25.166 31.617 23.584 31.628 22.003C31.636 20.856 31.644 19.708 31.651 18.561C31.651 18.524 31.646 18.488 31.643 18.446C31.556 18.458 31.496 18.421 31.433 18.392C30.501 17.958 29.568 17.527 28.638 17.09C27.787 16.69 26.935 16.289 26.091 15.878C24.481 15.094 22.876 14.302 21.268 13.514C21.22 13.49 21.169 13.471 21.112 13.443C21.067 13.414 21.029 13.396 20.983 13.423C20.96 13.436 20.934 13.445 20.909 13.457C19.587 14.066 18.275 14.689 16.973 15.327C16.178 15.716 15.387 16.109 14.59 16.496C13.246 17.149 11.885 17.779 10.514 18.39C10.469 18.41 10.422 18.425 10.376 18.442C10.376 17.034 10.376 15.626 10.388 14.209C10.451 14.18 10.503 14.165 10.551 14.141C11.244 13.803 11.936 13.462 12.63 13.124C14.448 12.237 16.266 11.348 18.087 10.465C19.015 10.015 19.95 9.57703 20.882 9.13403C20.94 9.10603 20.993 9.06703 21.072 9.07503C21.108 9.09703 21.137 9.11103 21.166 9.12503C22.039 9.54103 22.915 9.95203 23.783 10.374C26.117 11.507 28.445 12.649 30.759 13.812C31.033 13.949 31.307 14.088 31.581 14.226C31.612 14.241 31.643 14.271 31.693 14.241C31.693 14.208 31.693 14.171 31.696 14.122C31.701 14.047 31.702 13.986 31.703 13.925C31.723 12.25 31.708 10.576 31.669 8.90103C31.656 8.35003 31.631 7.79803 31.62 7.24603C31.608 6.59503 31.605 5.94403 31.599 5.29303C31.599 5.25603 31.605 5.21803 31.608 5.18103C33.751 5.18103 35.894 5.18103 38.059 5.18803C38.126 5.21703 38.168 5.24103 38.212 5.26003C39.208 5.70103 40.204 6.14303 41.201 6.58203C42.278 7.05603 43.356 7.52803 44.434 8.00003C45.304 8.38003 46.175 8.75903 47.046 9.13803C47.081 9.15303 47.117 9.16403 47.153 9.17603C47.153 10.547 47.153 11.917 47.141 13.299C46.374 12.991 45.619 12.671 44.864 12.35C43.855 11.92 42.841 11.498 41.838 11.058C40.205 10.34 38.572 9.62303 36.927 8.92503C36.872 8.90103 36.815 8.88303 36.752 8.85503C36.67 8.81803 36.595 8.78903 36.511 8.75603C36.499 8.76203 36.496 8.77103 36.489 8.79303C36.486 10.665 36.485 12.524 36.485 14.383C36.485 14.411 36.49 14.438 36.493 14.467C36.541 14.489 36.584 14.511 36.629 14.53C37.482 14.905 38.336 15.278 39.189 15.653C40.718 16.325 42.245 16.998 43.775 17.667C44.858 18.141 45.945 18.609 47.031 19.079C47.07 19.096 47.112 19.108 47.153 19.122C47.153 20.521 47.153 21.919 47.141 23.33C46.781 23.189 46.433 23.038 46.086 22.885C44.756 22.299 43.422 21.719 42.098 21.124C40.487 20.399 38.871 19.684 37.236 19C37.066 18.929 36.893 18.861 36.713 18.786C36.649 18.759 36.594 18.738 36.532 18.711C36.504 18.7 36.49 18.704 36.49 18.739C36.486 18.809 36.486 18.865 36.486 18.922C36.486 24.595 36.486 30.269 36.485 35.942C36.485 36.003 36.482 36.065 36.474 36.129C36.46 36.137 36.455 36.144 36.453 36.152C34.837 36.152 33.221 36.152 31.592 36.139C31.578 35.166 31.579 34.207 31.579 33.247C31.579 33.214 31.574 33.181 31.575 33.137C31.575 33.104 31.571 33.081 31.568 33.057C31.502 33.064 31.457 33.094 31.409 33.118C29.391 34.107 27.373 35.097 25.355 36.087C25.317 36.106 25.284 36.13 25.248 36.152C22.421 36.152 19.594 36.152 16.748 36.143C16.701 36.118 16.673 36.103 16.644 36.089C15.545 35.55 14.446 35.01 13.347 34.471C12.422 34.017 11.498 33.564 10.572 33.111C10.51 33.081 10.453 33.039 10.376 33.035C10.376 31.637 10.376 30.238 10.39 28.828C10.451 28.809 10.497 28.791 10.552 28.818C12.232 29.677 13.915 30.515 15.608 31.336C17.365 32.188 19.126 33.034 20.885 33.882C20.933 33.905 20.983 33.926 21.033 33.949C21.062 33.935 21.087 33.926 21.11 33.913C21.137 33.897 21.162 33.878 21.199 33.859C22.083 33.395 22.971 32.954 23.876 32.537C24.904 32.064 25.912 31.562 26.9 31.033C26.942 31.011 26.982 30.986 27.031 30.957C26.995 30.935 26.97 30.917 26.943 30.902C26.715 30.781 26.49 30.658 26.259 30.542C26.022 30.425 25.776 30.322 25.542 30.202C25.245 30.049 24.957 29.886 24.665 29.727C24.561 29.671 24.46 29.612 24.354 29.56C22.094 28.448 19.824 27.353 17.54 26.277C15.956 25.531 14.368 24.791 12.797 24.024C12.051 23.66 11.304 23.295 10.558 22.931C10.5 22.903 10.449 22.862 10.376 22.863Z" fill="white"/>
<path d="M36.9449 18.821C37.1159 18.89 37.2889 18.957 37.4589 19.029C39.0939 19.713 40.7109 20.428 42.3209 21.152C43.6449 21.748 44.9789 22.328 46.3089 22.914C46.6559 23.067 47.0039 23.218 47.3639 23.372C47.3759 27.64 47.3759 31.907 47.3759 36.181C43.9099 36.181 40.4429 36.181 36.9609 36.168C36.9449 35.432 36.9449 34.71 36.9449 33.988C36.9449 28.932 36.9449 23.876 36.9449 18.821Z" fill="#EF5F13"/>
<path d="M31.815 5.21008C31.828 5.24808 31.822 5.28508 31.823 5.32308C31.829 5.97408 31.831 6.62508 31.843 7.27608C31.854 7.82808 31.879 8.37908 31.892 8.93108C31.931 10.6051 31.946 12.2801 31.926 13.9541C31.925 14.0161 31.924 14.0771 31.908 14.1491C31.869 14.1511 31.842 14.1431 31.818 14.1301C31.451 13.9431 31.084 13.7541 30.716 13.5691C30.443 13.4311 30.166 13.2991 29.892 13.1631C29.599 13.0171 29.307 12.8701 29.014 12.7231C28.856 12.6441 28.698 12.5641 28.539 12.4861C28.318 12.3761 28.096 12.2671 27.874 12.1581C27.696 12.0711 27.517 11.9851 27.338 11.8971C27.117 11.7881 26.896 11.6781 26.674 11.5691C26.491 11.4781 26.307 11.3901 26.124 11.3001C25.887 11.1851 25.651 11.0691 25.414 10.9531C25.299 10.8961 25.184 10.8381 25.068 10.7821C24.894 10.6971 24.719 10.6141 24.544 10.5301C24.437 10.4791 24.33 10.4291 24.224 10.3771C24.025 10.2811 23.828 10.1831 23.629 10.0881C23.44 9.99708 23.249 9.90908 23.06 9.81808C22.827 9.70708 22.594 9.59508 22.361 9.48408C22.216 9.41408 22.071 9.34208 21.926 9.27308C21.804 9.21508 21.68 9.16008 21.559 9.10208C21.487 9.06808 21.415 9.05208 21.337 9.08708C21.323 9.09408 21.304 9.09308 21.288 9.09608C21.216 9.09708 21.163 9.13608 21.105 9.16308C20.173 9.60608 19.238 10.0451 18.31 10.4941C16.489 11.3771 14.671 12.2661 12.853 13.1531C12.159 13.4921 11.467 13.8321 10.774 14.1711C10.726 14.1941 10.674 14.2101 10.611 14.2251C10.599 11.2191 10.599 8.21708 10.599 5.21008C17.666 5.21008 24.733 5.21008 31.815 5.21008Z" fill="#EF5F13"/>
<path d="M10.599 22.904C10.672 22.891 10.723 22.931 10.781 22.959C11.528 23.323 12.274 23.688 13.02 24.052C14.591 24.819 16.179 25.559 17.763 26.305C20.047 27.381 22.317 28.476 24.577 29.588C24.683 29.64 24.784 29.699 24.888 29.756C25.18 29.914 25.468 30.078 25.765 30.23C25.999 30.35 26.246 30.453 26.482 30.571C26.713 30.686 26.938 30.81 27.166 30.93C27.194 30.945 27.218 30.963 27.254 30.986C27.205 31.014 27.165 31.039 27.123 31.061C26.135 31.59 25.127 32.092 24.099 32.565C23.194 32.982 22.306 33.423 21.409 33.886C21.347 33.878 21.307 33.873 21.273 33.859C21.179 33.817 21.088 33.771 20.996 33.726C20.808 33.634 20.62 33.542 20.432 33.45C20.292 33.381 20.151 33.313 20.011 33.245C19.856 33.17 19.702 33.094 19.546 33.02C19.352 32.927 19.155 32.838 18.962 32.744C18.715 32.624 18.472 32.499 18.225 32.38C17.949 32.246 17.67 32.117 17.393 31.985C17.062 31.828 16.732 31.669 16.402 31.511C16.301 31.462 16.2 31.412 16.099 31.362C15.882 31.255 15.667 31.146 15.449 31.04C15.193 30.916 14.934 30.795 14.678 30.67C14.451 30.559 14.227 30.443 14.001 30.331C13.789 30.226 13.576 30.123 13.365 30.018C13.024 29.848 12.683 29.676 12.343 29.505C12.09 29.377 11.837 29.248 11.583 29.119C11.402 29.027 11.221 28.932 11.038 28.843C10.952 28.802 10.859 28.792 10.768 28.839C10.72 28.819 10.674 28.837 10.613 28.843C10.599 26.867 10.599 24.892 10.599 22.904Z" fill="#EF5F13"/>
<path d="M36.982 8.89209C37.038 8.91209 37.095 8.93009 37.15 8.95309C38.795 9.65209 40.428 10.3691 42.061 11.0871C43.064 11.5271 44.078 11.9491 45.088 12.3791C45.842 12.7001 46.597 13.0201 47.364 13.3411C47.376 15.2231 47.376 17.1031 47.363 18.9961C47.303 18.9951 47.254 18.9861 47.21 18.9671C47.041 18.8941 46.875 18.8161 46.706 18.7421C46.283 18.5581 45.859 18.3761 45.436 18.1921C45.073 18.0341 44.704 17.8871 44.345 17.7221C43.907 17.5211 43.459 17.3371 43.016 17.1451C42.767 17.0371 42.52 16.9271 42.272 16.8181C42.044 16.7181 41.816 16.6171 41.588 16.5161C41.39 16.4281 41.192 16.3401 40.994 16.2521C40.737 16.1381 40.478 16.0261 40.22 15.9121C40.032 15.8291 39.845 15.7441 39.657 15.6611C39.399 15.5471 39.141 15.4341 38.883 15.3201C38.62 15.2051 38.357 15.0891 38.094 14.9741C37.771 14.8331 37.448 14.6921 37.124 14.5521C36.929 14.4671 36.945 14.4931 36.945 14.3061C36.945 12.5601 36.945 10.8131 36.945 9.06609C36.945 9.02809 36.942 8.99009 36.948 8.95309C36.951 8.93209 36.97 8.91209 36.982 8.89209Z" fill="#EF5F13"/>
<path d="M38.627 5.21008C41.54 5.21008 44.453 5.21008 47.376 5.21008C47.376 6.48608 47.376 7.76208 47.363 9.05108C47.298 9.04808 47.244 9.03608 47.195 9.01508C46.971 8.91908 46.749 8.81908 46.526 8.72108C46.264 8.60608 46.002 8.49008 45.739 8.37608C45.397 8.22608 45.054 8.07808 44.712 7.92908C44.508 7.84008 44.306 7.75008 44.102 7.66008C43.801 7.52808 43.499 7.39408 43.197 7.26208C42.824 7.10008 42.451 6.93808 42.078 6.77708C41.929 6.71208 41.779 6.65108 41.631 6.58508C41.33 6.45208 41.03 6.31508 40.73 6.18108C40.552 6.10108 40.375 6.02208 40.196 5.94308C39.919 5.82108 39.642 5.70008 39.365 5.57808C39.142 5.48008 38.919 5.38108 38.697 5.28208C38.677 5.27308 38.657 5.26308 38.643 5.25008C38.633 5.24008 38.632 5.22408 38.627 5.21008Z" fill="#EF5F13"/>
<path d="M10.599 33.0761C10.676 33.0661 10.733 33.1081 10.795 33.1381C11.721 33.5911 12.645 34.0451 13.57 34.4981C14.669 35.0371 15.768 35.5771 16.867 36.1161C16.896 36.1301 16.924 36.1461 16.956 36.1701C14.842 36.1791 12.725 36.1791 10.599 36.1791C10.599 35.1491 10.599 34.1191 10.599 33.0761Z" fill="#EF5F13"/>
<path d="M31.795 33.176C31.797 33.209 31.802 33.242 31.802 33.274C31.802 34.234 31.801 35.194 31.799 36.167C29.778 36.18 27.758 36.18 25.724 36.17C25.734 36.142 25.756 36.121 25.783 36.106C25.829 36.081 25.88 36.06 25.928 36.036C26.097 35.953 26.265 35.87 26.435 35.788C26.609 35.703 26.784 35.621 26.957 35.535C27.232 35.399 27.503 35.26 27.778 35.124C28.014 35.008 28.253 34.896 28.489 34.779C28.711 34.67 28.929 34.556 29.151 34.447C29.464 34.294 29.781 34.144 30.095 33.991C30.341 33.871 30.585 33.747 30.831 33.626C31.115 33.486 31.4 33.348 31.686 33.21C31.719 33.194 31.759 33.187 31.795 33.176Z" fill="#EF5F13"/>
<path d="M36.975 8.88299C36.97 8.91099 36.951 8.93099 36.947 8.95199C36.942 8.98899 36.945 9.02699 36.945 9.06499C36.945 10.812 36.945 12.559 36.945 14.305C36.945 14.492 36.929 14.466 37.124 14.551C37.447 14.691 37.771 14.832 38.094 14.973C38.357 15.088 38.62 15.204 38.883 15.32C39.141 15.433 39.399 15.546 39.656 15.66C39.845 15.743 40.032 15.828 40.22 15.911C40.478 16.025 40.736 16.137 40.994 16.251C41.192 16.339 41.39 16.427 41.588 16.515C41.816 16.616 42.044 16.717 42.272 16.817C42.52 16.926 42.767 17.036 43.016 17.144C43.459 17.336 43.907 17.52 44.345 17.721C44.704 17.886 45.073 18.034 45.436 18.191C45.859 18.375 46.283 18.557 46.706 18.741C46.874 18.815 47.041 18.893 47.21 18.966C47.254 18.985 47.303 18.995 47.363 19.009C47.376 19.048 47.376 19.087 47.376 19.139C47.335 19.136 47.293 19.124 47.254 19.107C46.168 18.637 45.081 18.169 43.998 17.695C42.468 17.026 40.941 16.353 39.412 15.681C38.559 15.307 37.705 14.933 36.852 14.558C36.807 14.539 36.764 14.518 36.716 14.495C36.713 14.466 36.709 14.439 36.709 14.411C36.709 12.552 36.709 10.693 36.718 8.81899C36.735 8.79999 36.74 8.79399 36.743 8.78699C36.818 8.81699 36.893 8.84599 36.975 8.88299Z" fill="#DD5D19"/>
<path d="M38.612 5.21008C38.632 5.22408 38.633 5.24008 38.643 5.25008C38.657 5.26308 38.677 5.27308 38.697 5.28208C38.919 5.38108 39.142 5.48008 39.365 5.57808C39.642 5.70008 39.919 5.82108 40.196 5.94308C40.375 6.02208 40.552 6.10108 40.73 6.18108C41.03 6.31508 41.33 6.45208 41.631 6.58508C41.779 6.65108 41.929 6.71208 42.078 6.77708C42.451 6.93808 42.824 7.10008 43.197 7.26208C43.499 7.39408 43.801 7.52808 44.102 7.66008C44.306 7.75008 44.508 7.84008 44.712 7.92908C45.054 8.07808 45.397 8.22608 45.739 8.37608C46.002 8.49008 46.264 8.60608 46.526 8.72108C46.749 8.81908 46.971 8.91908 47.195 9.01508C47.244 9.03608 47.298 9.04808 47.363 9.06408C47.376 9.10408 47.376 9.14308 47.376 9.19408C47.34 9.19308 47.303 9.18208 47.269 9.16708C46.398 8.78808 45.527 8.41008 44.657 8.02908C43.578 7.55808 42.501 7.08608 41.424 6.61208C40.427 6.17308 39.431 5.73108 38.435 5.29008C38.391 5.27008 38.348 5.24708 38.298 5.21808C38.393 5.21008 38.495 5.21008 38.612 5.21008Z" fill="#DE5F1C"/>
<path d="M31.798 33.1661C31.758 33.1881 31.719 33.1951 31.686 33.2101C31.4 33.3481 31.115 33.4871 30.831 33.6271C30.585 33.7481 30.341 33.8721 30.095 33.9921C29.781 34.1451 29.464 34.2951 29.15 34.4481C28.928 34.5571 28.71 34.6711 28.489 34.7801C28.253 34.8971 28.014 35.0091 27.778 35.1251C27.503 35.2611 27.231 35.4001 26.957 35.5361C26.784 35.6221 26.609 35.7041 26.434 35.7891C26.265 35.8711 26.097 35.9541 25.928 36.0371C25.88 36.0611 25.829 36.0811 25.783 36.1071C25.756 36.1211 25.734 36.1431 25.708 36.1711C25.638 36.1811 25.569 36.1811 25.486 36.1811C25.507 36.1591 25.54 36.1341 25.578 36.1161C27.596 35.1251 29.614 34.1361 31.632 33.1461C31.68 33.1221 31.725 33.0931 31.791 33.0851C31.794 33.1101 31.798 33.1321 31.798 33.1661Z" fill="#DF6321"/>
<path d="M31.798 28.6581C31.728 28.6471 31.658 28.6281 31.596 28.5991C31.401 28.5071 31.21 28.4091 31.016 28.3161C30.807 28.2161 30.596 28.1191 30.386 28.0201C30.264 27.9621 30.144 27.9021 30.023 27.8441C29.911 27.7901 29.8 27.7361 29.687 27.6841C29.555 27.6221 29.422 27.5631 29.289 27.5021C29.099 27.4131 28.909 27.3231 28.718 27.2341C28.586 27.1721 28.452 27.1131 28.32 27.0511C28.002 26.9031 27.683 26.7571 27.367 26.6061C27.12 26.4871 26.877 26.3611 26.63 26.2421C26.417 26.1391 26.2 26.0411 25.985 25.9401C25.824 25.8641 25.665 25.7851 25.506 25.7071C25.4 25.6551 25.295 25.6011 25.189 25.5491C24.904 25.4101 24.619 25.2701 24.333 25.1321C24.086 25.0121 23.836 24.8971 23.59 24.7751C23.33 24.6471 23.074 24.5131 22.815 24.3831C22.609 24.2791 22.401 24.1781 22.194 24.0751C21.958 23.9581 21.724 23.8381 21.488 23.7221C21.309 23.6351 21.127 23.5521 20.948 23.4641C20.702 23.3441 20.458 23.2201 20.211 23.1001C20.09 23.0411 19.966 22.9871 19.844 22.9291C19.631 22.8271 19.418 22.7221 19.205 22.6201C19.093 22.5661 18.98 22.5141 18.868 22.4621C18.613 22.3451 18.356 22.2301 18.102 22.1101C17.907 22.0181 17.716 21.9201 17.523 21.8261C17.348 21.7421 17.172 21.6601 16.998 21.5751C16.834 21.4951 16.67 21.4141 16.506 21.3331C16.327 21.2461 16.148 21.1591 15.969 21.0711C15.752 20.9651 15.534 20.8601 15.317 20.7521C15.091 20.6401 14.866 20.5261 14.641 20.4131C14.3 20.2421 13.96 20.0701 13.619 19.8991C13.345 19.7631 13.069 19.6291 12.795 19.4931C12.708 19.4501 12.626 19.4011 12.539 19.3591C12.365 19.2741 12.188 19.1921 12.014 19.1081C11.757 18.9841 11.489 18.8761 11.248 18.7291C11.113 18.6471 10.979 18.5651 10.85 18.4861C10.853 18.4381 10.892 18.4321 10.919 18.4201C11.146 18.3191 11.375 18.2201 11.603 18.1171C11.884 17.9911 12.164 17.8631 12.444 17.7341C12.66 17.6351 12.875 17.5361 13.09 17.4341C13.334 17.3191 13.575 17.2011 13.819 17.0861C14.033 16.9851 14.25 16.8871 14.464 16.7851C14.659 16.6921 14.85 16.5951 15.044 16.5011C15.223 16.4141 15.404 16.3311 15.583 16.2431C15.944 16.0641 16.304 15.8831 16.665 15.7051C16.901 15.5881 17.14 15.4761 17.377 15.3601C17.541 15.2791 17.703 15.1961 17.867 15.1151C17.968 15.0651 18.071 15.0181 18.173 14.9691C18.469 14.8261 18.764 14.6821 19.06 14.5401C19.171 14.4861 19.285 14.4351 19.397 14.3831C19.715 14.2351 20.033 14.0861 20.351 13.9381C20.566 13.8381 20.781 13.7381 20.997 13.6381C21.104 13.5881 21.212 13.5371 21.33 13.4821C21.392 13.4991 21.443 13.5181 21.491 13.5411C23.098 14.3301 24.704 15.1221 26.314 15.9061C27.158 16.3171 28.009 16.7181 28.861 17.1181C29.79 17.5551 30.724 17.9851 31.656 18.4191C31.719 18.4481 31.779 18.4851 31.865 18.4741C31.869 18.5151 31.874 18.5521 31.874 18.5881C31.867 19.7361 31.859 20.8831 31.851 22.0301C31.84 23.6121 31.829 25.1931 31.818 26.7751C31.813 27.3981 31.807 28.0211 31.798 28.6581Z" fill="#EF5F13"/>
<path d="M21.2949 9.10304C21.3039 9.09204 21.3219 9.09304 21.3359 9.08604C21.4149 9.05104 21.4859 9.06704 21.5589 9.10104C21.6799 9.15904 21.8039 9.21404 21.9249 9.27204C22.0709 9.34104 22.2159 9.41304 22.3609 9.48204C22.5939 9.59404 22.8259 9.70604 23.0599 9.81704C23.2489 9.90704 23.4399 9.99604 23.6289 10.087C23.8279 10.182 24.0249 10.28 24.2229 10.376C24.3299 10.428 24.4369 10.478 24.5439 10.529C24.7179 10.613 24.8929 10.696 25.0669 10.781C25.1829 10.837 25.2979 10.895 25.4139 10.952C25.6499 11.068 25.8869 11.184 26.1229 11.299C26.3069 11.389 26.4909 11.477 26.6739 11.567C26.8959 11.676 27.1159 11.787 27.3379 11.896C27.5159 11.984 27.6959 12.07 27.8739 12.157C28.0959 12.266 28.3179 12.375 28.5389 12.485C28.6979 12.563 28.8559 12.643 29.0139 12.722C29.3069 12.869 29.5989 13.016 29.8919 13.162C30.1659 13.298 30.4419 13.43 30.7149 13.568C31.0839 13.753 31.4499 13.942 31.8179 14.129C31.8419 14.141 31.8679 14.15 31.9049 14.161C31.9149 14.2 31.9149 14.237 31.9149 14.27C31.8649 14.299 31.8349 14.27 31.8039 14.254C31.5289 14.117 31.2559 13.978 30.9819 13.84C28.6679 12.678 26.3399 11.536 24.0059 10.402C23.1369 9.98004 22.2619 9.56904 21.3889 9.15304C21.3599 9.13904 21.3309 9.12504 21.2949 9.10304Z" fill="#DE5F1C"/>
<path d="M10.733 28.821C10.817 28.768 10.91 28.777 10.996 28.819C11.181 28.908 11.362 29.003 11.544 29.096C11.799 29.225 12.053 29.355 12.308 29.483C12.65 29.656 12.992 29.828 13.334 29.999C13.547 30.105 13.761 30.207 13.974 30.313C14.201 30.426 14.426 30.542 14.653 30.653C14.911 30.779 15.171 30.9 15.429 31.025C15.647 31.132 15.864 31.241 16.081 31.349C16.183 31.399 16.284 31.449 16.387 31.498C16.718 31.658 17.05 31.816 17.382 31.975C17.66 32.107 17.941 32.237 18.218 32.371C18.466 32.491 18.711 32.617 18.958 32.737C19.153 32.831 19.35 32.921 19.546 33.014C19.702 33.089 19.857 33.165 20.013 33.241C20.154 33.309 20.295 33.377 20.436 33.446C20.625 33.538 20.813 33.631 21.003 33.724C21.095 33.769 21.187 33.815 21.281 33.857C21.315 33.872 21.355 33.876 21.406 33.886C21.393 33.905 21.368 33.924 21.341 33.939C21.318 33.952 21.292 33.962 21.263 33.975C21.213 33.952 21.163 33.931 21.115 33.908C19.347 33.056 17.577 32.207 15.812 31.351C14.111 30.525 12.42 29.684 10.733 28.821Z" fill="#DE5F1C"/>
<path d="M36.735 8.78503C36.74 8.79503 36.735 8.80003 36.721 8.80603C36.719 8.79903 36.723 8.79003 36.735 8.78503Z" fill="#E06A2C"/>
<path d="M36.756 18.738C36.755 18.746 36.747 18.748 36.728 18.752C36.713 18.731 36.727 18.727 36.756 18.738Z" fill="#E06A2C"/>
</g>
<defs>
<clipPath id="clip0_132_429">
<rect width="290" height="39" fill="white" transform="translate(0 0.109985)"/>
</clipPath>
</defs>
</svg>
