<svg width="212" height="32" viewBox="0 0 212 32" fill="none" xmlns="http://www.w3.org/2000/svg">
<path d="M54.6426 19.2485C54.6426 20.0107 54.4564 20.7106 54.084 21.3481C53.7116 21.9717 53.2149 22.4706 52.5942 22.8448C51.9735 23.219 51.277 23.4061 50.5044 23.4061H37.9244V21.3273H50.5044C51.0837 21.3273 51.5736 21.1264 51.9735 20.7244C52.3734 20.3087 52.5735 19.8167 52.5735 19.2485C52.5735 18.6803 52.3734 18.1952 51.9735 17.7933C51.5736 17.3776 51.0837 17.1697 50.5044 17.1697H42.0626C41.3039 17.1697 40.6074 16.9826 39.9728 16.6084C39.3521 16.2342 38.8554 15.7353 38.483 15.1116C38.1106 14.4741 37.9244 13.7743 37.9244 13.0121C37.9244 12.2498 38.1106 11.5569 38.483 10.9332C38.8554 10.2958 39.3521 9.78991 39.9728 9.41571C40.6074 9.0415 41.3039 8.85443 42.0626 8.85443H53.608V10.9332H42.0626C41.497 10.9332 41.0073 11.1411 40.5935 11.5569C40.1936 11.9588 39.9935 12.4439 39.9935 13.0121C39.9935 13.5803 40.1936 14.0722 40.5935 14.488C41.0073 14.8899 41.497 15.0908 42.0626 15.0908H50.5044C51.277 15.0908 51.9735 15.278 52.5942 15.6521C53.2149 16.0263 53.7116 16.5322 54.084 17.1697C54.4564 17.7933 54.6426 18.4862 54.6426 19.2485ZM60.0151 9.37411C60.0151 9.80374 59.8632 10.171 59.5599 10.4759C59.2564 10.7808 58.8909 10.9332 58.4632 10.9332C58.0354 10.9332 57.6702 10.7808 57.3665 10.4759C57.063 10.171 56.9115 9.80374 56.9115 9.37411C56.9115 8.94454 57.063 8.57724 57.3665 8.27235C57.6702 7.96745 58.0354 7.815 58.4632 7.815C58.8909 7.815 59.2564 7.96745 59.5599 8.27235C59.8632 8.57724 60.0151 8.94454 60.0151 9.37411ZM59.4977 23.4061H57.4286V11.9726H59.4977V23.4061ZM67.0939 23.4061H65.0252V14.0515H61.9214V11.9726H65.0252V7.815H67.0939V11.9726H74.3361V14.0515H67.0939V23.4061ZM89.5722 15.6106C89.5722 16.2758 89.4071 16.8856 89.0755 17.4399C88.7584 17.9943 88.3236 18.4377 87.7718 18.7703C87.2339 19.0891 86.627 19.2485 85.9511 19.2485H78.0268C78.3166 19.8583 78.7438 20.3572 79.3095 20.7452C79.8892 21.1333 80.5372 21.3273 81.2542 21.3273H88.0205V23.4061H81.2542C80.4683 23.4061 79.7304 23.2606 79.0406 22.9696C78.3647 22.6647 77.7648 22.2489 77.2402 21.7223C76.7301 21.1956 76.3301 20.5928 76.0403 19.9137C75.7511 19.2208 75.6055 18.4793 75.6055 17.6894C75.6055 16.8994 75.7511 16.1649 76.0403 15.4858C76.3301 14.7929 76.7301 14.1831 77.2402 13.6565C77.7648 13.1299 78.3647 12.7211 79.0406 12.43C79.7304 12.1251 80.4683 11.9726 81.2542 11.9726H85.9511C86.627 11.9726 87.2339 12.139 87.7718 12.4716C88.3236 12.7903 88.7584 13.2268 89.0755 13.7812C89.4071 14.3217 89.5722 14.9315 89.5722 15.6106ZM85.9511 17.1697C86.3789 17.1697 86.7447 17.0172 87.0478 16.7123C87.3516 16.4075 87.5035 16.0402 87.5035 15.6106C87.5035 15.181 87.3516 14.8137 87.0478 14.5088C86.7447 14.2039 86.3789 14.0515 85.9511 14.0515H81.2542C80.648 14.0515 80.0886 14.19 79.5785 14.4672C79.0817 14.7444 78.6678 15.1186 78.3369 15.5898C78.0059 16.061 77.799 16.5876 77.7161 17.1697H85.9511ZM103.607 9.89385H97.875C97.2131 9.89385 96.6125 10.0601 96.0753 10.3927C95.5373 10.7253 95.1026 11.1689 94.7716 11.7232C94.4546 12.2637 94.2957 12.8665 94.2957 13.5317V23.4061H92.2263V13.0121C92.2263 12.2775 92.3782 11.5985 92.6813 10.9748C92.9851 10.3373 93.399 9.78991 93.923 9.33257C94.4609 8.86134 95.0678 8.49411 95.7443 8.23081C96.4195 7.95363 97.1302 7.815 97.875 7.815H103.607V9.89385ZM108.014 9.37411C108.014 9.80374 107.862 10.171 107.559 10.4759C107.255 10.7808 106.889 10.9332 106.462 10.9332C106.034 10.9332 105.668 10.7808 105.365 10.4759C105.062 10.171 104.91 9.80374 104.91 9.37411C104.91 8.94454 105.062 8.57724 105.365 8.27235C105.668 7.96745 106.034 7.815 106.462 7.815C106.889 7.815 107.255 7.96745 107.559 8.27235C107.862 8.57724 108.014 8.94454 108.014 9.37411ZM107.497 23.4061H105.427V15.0908H95.3304V13.0121H107.497V23.4061ZM122.783 23.4061H116.018C115.231 23.4061 114.493 23.2606 113.804 22.9696C113.128 22.6647 112.528 22.2489 112.004 21.7223C111.493 21.1956 111.093 20.5928 110.803 19.9137C110.514 19.2208 110.369 18.4793 110.369 17.6894C110.369 16.8994 110.514 16.1649 110.803 15.4858C111.093 14.7929 111.493 14.1831 112.004 13.6565C112.528 13.1299 113.128 12.7211 113.804 12.43C114.493 12.1251 115.231 11.9726 116.018 11.9726H122.783V14.0515H116.018C115.355 14.0515 114.755 14.2178 114.217 14.5504C113.679 14.883 113.245 15.3265 112.914 15.8808C112.597 16.4213 112.438 17.0242 112.438 17.6894C112.438 18.3546 112.597 18.9644 112.914 19.5187C113.245 20.0592 113.679 20.4958 114.217 20.8284C114.755 21.161 115.355 21.3273 116.018 21.3273H122.783V23.4061ZM128.263 9.37411C128.263 9.80374 128.111 10.171 127.808 10.4759C127.504 10.7808 127.138 10.9332 126.711 10.9332C126.283 10.9332 125.917 10.7808 125.614 10.4759C125.31 10.171 125.158 9.80374 125.158 9.37411C125.158 8.94454 125.31 8.57724 125.614 8.27235C125.917 7.96745 126.283 7.815 126.711 7.815C127.138 7.815 127.504 7.96745 127.808 8.27235C128.111 8.57724 128.263 8.94454 128.263 9.37411ZM127.746 23.4061H125.676V11.9726H127.746V23.4061ZM144.59 15.6106C144.59 16.2758 144.425 16.8856 144.094 17.4399C143.777 17.9943 143.342 18.4377 142.791 18.7703C142.253 19.0891 141.646 19.2485 140.97 19.2485H133.045C133.335 19.8583 133.763 20.3572 134.328 20.7452C134.907 21.1333 135.555 21.3273 136.272 21.3273H143.039V23.4061H136.272C135.486 23.4061 134.748 23.2606 134.059 22.9696C133.383 22.6647 132.783 22.2489 132.259 21.7223C131.748 21.1956 131.348 20.5928 131.059 19.9137C130.769 19.2208 130.624 18.4793 130.624 17.6894C130.624 16.8994 130.769 16.1649 131.059 15.4858C131.348 14.7929 131.748 14.1831 132.259 13.6565C132.783 13.1299 133.383 12.7211 134.059 12.43C134.748 12.1251 135.486 11.9726 136.272 11.9726H140.97C141.646 11.9726 142.253 12.139 142.791 12.4716C143.342 12.7903 143.777 13.2268 144.094 13.7812C144.425 14.3217 144.59 14.9315 144.59 15.6106ZM140.97 17.1697C141.397 17.1697 141.763 17.0172 142.066 16.7123C142.37 16.4075 142.522 16.0402 142.522 15.6106C142.522 15.181 142.37 14.8137 142.066 14.5088C141.763 14.2039 141.397 14.0515 140.97 14.0515H136.272C135.666 14.0515 135.107 14.19 134.597 14.4672C134.1 14.7444 133.687 15.1186 133.356 15.5898C133.024 16.061 132.817 16.5876 132.735 17.1697H140.97ZM149.314 23.4061H147.244V11.9726H155.004C155.79 11.9726 156.521 12.1251 157.197 12.43C157.887 12.7211 158.487 13.1299 158.997 13.6565C159.521 14.1831 159.928 14.7929 160.218 15.4858C160.507 16.1649 160.652 16.8994 160.652 17.6894V23.4061H158.583V17.6894C158.583 17.0242 158.425 16.4213 158.108 15.8808C157.79 15.3265 157.356 14.883 156.804 14.5504C156.266 14.2178 155.666 14.0515 155.004 14.0515H149.314V23.4061ZM167.7 23.4061H165.632V14.0515H162.527V11.9726H165.632V7.815H167.7V11.9726H174.942V14.0515H167.7V23.4061Z" fill="#474747"/>
<mask id="mask0_132_491" style="mask-type:luminance" maskUnits="userSpaceOnUse" x="6" y="4" width="23" height="24">
<path d="M28.7037 4.97998H6.77084V27.0159H28.7037V4.97998Z" fill="white"/>
</mask>
<g mask="url(#mask0_132_491)">
<path d="M6.65839 17.5604C6.65839 16.5318 6.65839 15.5031 6.66547 14.4655C6.69788 14.4719 6.72439 14.4857 6.74838 14.5031C6.90867 14.6187 7.07277 14.7279 7.24737 14.821C7.37716 14.8903 7.50594 14.9617 7.63245 15.0368C8.31983 15.445 9.0052 15.8566 9.69353 16.2632C10.1399 16.5268 10.5873 16.789 11.0393 17.0429C11.8354 17.4901 12.6308 17.9385 13.4141 18.4079C14.2003 18.8791 14.9937 19.3377 15.7877 19.7954C16.518 20.2163 17.2516 20.631 17.9887 21.0397C18.3807 21.2569 18.768 21.4826 19.1577 21.704C19.2006 21.7284 19.2409 21.759 19.2921 21.7729C19.3105 21.7384 19.3045 21.7059 19.301 21.6641C19.3062 21.2114 19.3102 20.768 19.313 20.3246C19.3199 19.1993 19.3263 18.074 19.3328 16.9487C19.3374 16.1324 19.342 15.3161 19.3463 14.4998C19.3464 14.4737 19.3431 14.4476 19.3412 14.4183C19.2896 14.4263 19.2539 14.4001 19.2164 14.3792C18.6606 14.0708 18.1038 13.7643 17.5494 13.4534C17.0416 13.1687 16.534 12.8836 16.0307 12.5912C15.0702 12.0331 14.1129 11.4697 13.1541 10.9088C13.1255 10.892 13.0949 10.8786 13.0613 10.8582C13.0344 10.8375 13.0117 10.8247 12.9842 10.844C12.9705 10.8535 12.9549 10.8601 12.9402 10.8682C12.1518 11.3014 11.3691 11.7446 10.5924 12.1986C10.1186 12.4754 9.64657 12.7554 9.17176 13.0305C8.36976 13.4951 7.5586 13.9432 6.7404 14.3785C6.71401 14.3925 6.68579 14.4031 6.65839 14.4153C6.65839 13.4135 6.65839 12.4118 6.6656 11.4034C6.70287 11.383 6.73433 11.3718 6.76268 11.3553C7.17611 11.1143 7.58872 10.872 8.00234 10.6313C9.08689 10 10.1708 9.36766 11.2571 8.73944C11.8103 8.4195 12.3681 8.10737 12.9241 7.7923C12.9585 7.77284 12.9899 7.74507 13.0371 7.75025C13.0588 7.76593 13.0761 7.77604 13.0935 7.78603C13.6138 8.08203 14.1361 8.37457 14.654 8.67467C16.046 9.48113 17.4344 10.2936 18.8144 11.1206C18.9779 11.2186 19.1409 11.3175 19.3046 11.4153C19.3232 11.4265 19.3414 11.4471 19.3711 11.4265C19.3711 11.4029 19.3711 11.3766 19.3732 11.3412C19.3759 11.2884 19.3767 11.2447 19.3771 11.2011C19.3891 10.0096 19.3803 8.81822 19.3569 7.62699C19.3491 7.23441 19.3342 6.84196 19.328 6.44939C19.3206 5.98631 19.3192 5.52312 19.3155 5.05997C19.3154 5.03332 19.3187 5.00665 19.3204 4.97998C20.5984 4.97998 21.8764 4.97998 23.1681 4.9852C23.2076 5.0058 23.2328 5.02239 23.2593 5.0364C23.8534 5.35014 24.447 5.66451 25.0418 5.97686C25.6838 6.31409 26.3267 6.6499 26.9697 6.98539C27.4886 7.25611 28.0082 7.52548 28.5275 7.79518C28.5481 7.8058 28.57 7.81355 28.5912 7.8227C28.5912 8.79755 28.5912 9.7724 28.5842 10.7559C28.1268 10.5366 27.6764 10.3092 27.2264 10.0806C26.6244 9.77502 26.0197 9.4746 25.4218 9.1612C24.4478 8.6506 23.4737 8.14033 22.4926 7.6435C22.4601 7.62705 22.4257 7.61419 22.3882 7.59435C22.3393 7.56798 22.2946 7.54692 22.2449 7.52388C22.2377 7.52798 22.2355 7.53419 22.2317 7.54968C22.2297 8.88177 22.2295 10.2046 22.2294 11.5274C22.2294 11.547 22.2324 11.5666 22.234 11.5872C22.2625 11.603 22.2885 11.618 22.3151 11.6319C22.8241 11.8983 23.3332 12.1643 23.842 12.431C24.7536 12.9086 25.6643 13.3879 26.5766 13.864C27.2228 14.201 27.8711 14.5337 28.5188 14.8681C28.542 14.8801 28.567 14.8889 28.5912 14.8992C28.5912 15.8942 28.5912 16.8893 28.5842 17.8927C28.3697 17.7929 28.1621 17.6852 27.955 17.5763C27.1618 17.1592 26.3661 16.7469 25.5766 16.3231C24.6161 15.8075 23.6522 15.2989 22.677 14.812C22.5755 14.7613 22.4726 14.7133 22.3651 14.6597C22.3269 14.6406 22.2941 14.6257 22.2575 14.6066C22.2403 14.5984 22.2322 14.6014 22.232 14.6265C22.23 14.6761 22.2296 14.7164 22.2296 14.7567C22.2296 18.7933 22.2296 22.8298 22.2294 26.8663C22.2294 26.91 22.2274 26.9536 22.2225 26.9991C22.2142 27.005 22.2113 27.01 22.21 27.0159C21.2464 27.0159 20.2828 27.0159 19.311 27.0065C19.3029 26.3143 19.3031 25.6316 19.303 24.9488C19.303 24.9255 19.3005 24.9022 19.3011 24.8708C19.301 24.8469 19.2989 24.8311 19.2966 24.8134C19.2573 24.8189 19.2305 24.84 19.202 24.8567C17.9984 25.5609 16.795 26.2652 15.5916 26.9698C15.5691 26.983 15.549 27.0004 15.5278 27.0159C13.8418 27.0159 12.1558 27.0159 10.4588 27.0091C10.4306 26.9919 10.4138 26.981 10.3964 26.9708C9.74106 26.5871 9.08569 26.2034 8.4302 25.8198C7.87868 25.4971 7.32723 25.1743 6.7754 24.8521C6.73831 24.8305 6.70446 24.8006 6.65839 24.7982C6.65839 23.8032 6.65839 22.8081 6.66693 21.8046C6.70319 21.7912 6.73059 21.7785 6.76363 21.7974C7.76528 22.409 8.7687 23.0048 9.77865 23.5894C10.8262 24.1957 11.8766 24.7972 12.9257 25.4007C12.9543 25.4171 12.9839 25.432 13.014 25.4481C13.0311 25.4387 13.0463 25.432 13.0598 25.4227C13.0761 25.4114 13.091 25.3981 13.1131 25.3843C13.6403 25.0539 14.1698 24.7402 14.7094 24.4437C15.3223 24.1069 15.9235 23.7501 16.5132 23.3737C16.538 23.3577 16.5619 23.3401 16.5911 23.3199C16.5697 23.3037 16.5549 23.2908 16.5385 23.2804C16.4028 23.1947 16.2684 23.1065 16.1304 23.0246C15.9896 22.941 15.8425 22.8678 15.7029 22.7822C15.5261 22.6738 15.3541 22.5575 15.18 22.4447C15.1182 22.4047 15.0577 22.3625 14.9943 22.3253C13.6469 21.5344 12.2928 20.7552 10.931 19.9897C9.98628 19.4587 9.03892 18.9323 8.10226 18.3867C7.65706 18.1275 7.21205 17.8678 6.7666 17.6089C6.73255 17.5892 6.70167 17.5603 6.65839 17.5604Z" fill="white"/>
<path d="M22.504 14.685C22.6062 14.7343 22.7091 14.7823 22.8106 14.833C23.7858 15.3199 24.7497 15.8285 25.7102 16.3441C26.4997 16.7679 27.2953 17.1802 28.0884 17.5973C28.2955 17.7062 28.5033 17.8138 28.7178 17.9231C28.7249 20.9599 28.7249 23.9958 28.7249 27.0369C26.6575 27.0369 24.5902 27.0369 22.5136 27.0275C22.5042 26.5041 22.5042 25.9903 22.5042 25.4764C22.5041 21.8793 22.5041 18.2821 22.504 14.685Z" fill="#EF5F13"/>
<path d="M19.4445 5C19.4522 5.02667 19.4489 5.05334 19.4491 5.07999C19.4527 5.54314 19.4541 6.00633 19.4614 6.46944C19.4676 6.86202 19.4826 7.2544 19.4903 7.64698C19.5138 8.83827 19.5227 10.0296 19.5106 11.2211C19.5101 11.2648 19.5094 11.3084 19.5002 11.3601C19.4767 11.361 19.4608 11.3551 19.4465 11.3466C19.2273 11.2134 19.0088 11.079 18.789 10.9469C18.6261 10.8491 18.4611 10.7548 18.2977 10.658C18.1229 10.5544 17.9488 10.4495 17.7743 10.3453C17.6799 10.2889 17.5857 10.2323 17.491 10.1764C17.359 10.0984 17.2268 10.0208 17.0945 9.94349C16.988 9.88122 16.881 9.82003 16.7747 9.75757C16.6425 9.68 16.5109 9.60128 16.3788 9.52371C16.2696 9.45965 16.1598 9.39654 16.0504 9.3328C15.9093 9.25062 15.7682 9.16832 15.6273 9.08582C15.5583 9.04544 15.4899 9.0041 15.4207 8.96403C15.3168 8.90394 15.2125 8.84454 15.1084 8.78496C15.0447 8.74854 14.9807 8.7127 14.9173 8.67597C14.799 8.60755 14.6813 8.53811 14.5628 8.47021C14.45 8.40557 14.3362 8.34266 14.2232 8.2784C14.0841 8.19936 13.9453 8.11987 13.8066 8.04026C13.7199 7.99053 13.6337 7.93978 13.5467 7.8905C13.4742 7.84934 13.4005 7.81024 13.3281 7.76896C13.285 7.74445 13.2423 7.73299 13.1956 7.75846C13.1872 7.76301 13.1761 7.76275 13.1663 7.76467C13.1234 7.76512 13.0919 7.79283 13.0575 7.81235C12.5015 8.12736 11.9438 8.43949 11.3905 8.75942C10.3043 9.38765 9.22041 10.0201 8.13586 10.6513C7.72224 10.892 7.30963 11.1344 6.89619 11.3754C6.86778 11.3919 6.83633 11.4031 6.79905 11.414C6.79184 9.27514 6.79184 7.13901 6.79184 5C11.0063 5 15.2207 5 19.4445 5Z" fill="#EF5F13"/>
<path d="M6.79184 17.5918C6.83513 17.5823 6.86601 17.6111 6.90012 17.631C7.34557 17.8898 7.79052 18.1495 8.23572 18.4087C9.17238 18.9542 10.1197 19.4807 11.0645 20.0117C12.4264 20.7772 13.7804 21.5565 15.1278 22.3472C15.1912 22.3845 15.2517 22.4267 15.3134 22.4667C15.4875 22.5796 15.6595 22.6958 15.8363 22.8042C15.9759 22.8898 16.1231 22.9629 16.2639 23.0466C16.4019 23.1286 16.5363 23.2166 16.672 23.3024C16.6884 23.3128 16.7032 23.3257 16.7246 23.3419C16.6953 23.3621 16.6715 23.3798 16.6466 23.3956C16.057 23.7721 15.4557 24.1289 14.8428 24.4656C14.3032 24.7622 13.7738 25.0759 13.2386 25.4054C13.2018 25.3995 13.1778 25.3965 13.1577 25.3859C13.1018 25.3563 13.0473 25.3238 12.9926 25.2919C12.8802 25.2264 12.7682 25.1604 12.6559 25.0949C12.5724 25.0462 12.4886 24.998 12.405 24.9496C12.3126 24.8961 12.2206 24.842 12.1278 24.7893C12.0119 24.7234 11.8946 24.6598 11.7792 24.5929C11.6321 24.5076 11.4872 24.4187 11.34 24.3337C11.1753 24.2388 11.0089 24.1468 10.8436 24.0529C10.6464 23.9409 10.4496 23.8283 10.2529 23.7156C10.1921 23.6809 10.1319 23.6452 10.0716 23.6096C9.94248 23.5333 9.81395 23.4558 9.68422 23.3806C9.53132 23.2919 9.37678 23.2061 9.22414 23.117C9.08884 23.0381 8.95544 22.9559 8.82071 22.876C8.69446 22.8012 8.56713 22.7283 8.44114 22.6533C8.23781 22.5322 8.03492 22.4103 7.83216 22.2882C7.68078 22.1972 7.52985 22.1053 7.37879 22.0138C7.27039 21.9482 7.16293 21.881 7.05333 21.8176C7.00232 21.7881 6.94688 21.7814 6.89265 21.8142C6.86405 21.8006 6.83671 21.8132 6.80038 21.8171C6.79184 20.4112 6.79184 19.0062 6.79184 17.5918Z" fill="#EF5F13"/>
<path d="M22.5251 7.61993C22.5586 7.63446 22.5929 7.64733 22.6254 7.66377C23.6064 8.16061 24.5805 8.67088 25.5545 9.18147C26.1525 9.49488 26.7572 9.79529 27.3592 10.101C27.8093 10.3294 28.2597 10.5569 28.7171 10.7856C28.724 12.1242 28.7241 13.462 28.7164 14.8091C28.6807 14.8087 28.6511 14.8019 28.6249 14.7884C28.5242 14.7362 28.425 14.6807 28.3243 14.6283C28.0721 14.4974 27.8194 14.3677 27.5671 14.2371C27.3505 14.1249 27.1303 14.0201 26.9161 13.9025C26.6555 13.7594 26.3881 13.6286 26.1239 13.4919C25.9756 13.4151 25.8278 13.3372 25.68 13.2594C25.544 13.1879 25.4081 13.1161 25.2722 13.0443C25.1541 12.9819 25.0363 12.9189 24.9181 12.8567C24.7644 12.7758 24.6103 12.6955 24.4566 12.6146C24.3444 12.5554 24.2326 12.4952 24.1203 12.436C23.9666 12.355 23.8127 12.2746 23.6588 12.1939C23.502 12.1116 23.3453 12.0292 23.1883 11.9473C22.9957 11.8469 22.803 11.7468 22.6101 11.6468C22.4936 11.5864 22.5034 11.6052 22.5034 11.4723C22.5033 10.2295 22.5034 8.98665 22.5034 7.7439C22.5034 7.71702 22.5013 7.68982 22.5047 7.66339C22.5067 7.64829 22.518 7.6344 22.5251 7.61993Z" fill="#EF5F13"/>
<path d="M23.5064 5C25.2436 5 26.9808 5 28.7238 5C28.7238 5.90765 28.7238 6.8153 28.7161 7.73235C28.6775 7.7303 28.6449 7.72198 28.6158 7.70701C28.4823 7.63827 28.3499 7.56749 28.2169 7.49773C28.0606 7.41562 27.9043 7.3335 27.7475 7.25197C27.5436 7.14566 27.3392 7.04019 27.1352 6.93389C27.0138 6.87072 26.8929 6.80666 26.7717 6.74304C26.5917 6.64858 26.4119 6.55373 26.2316 6.45984C26.0094 6.34422 25.7869 6.22925 25.5644 6.11437C25.4756 6.06856 25.3857 6.02501 25.2976 5.97821C25.118 5.88299 24.9394 5.78612 24.7603 5.69022C24.6545 5.63353 24.5485 5.57703 24.4422 5.52111C24.277 5.43425 24.1114 5.34812 23.9463 5.26134C23.8133 5.19149 23.6806 5.12123 23.5479 5.05082C23.5362 5.04464 23.5242 5.03759 23.5156 5.02797C23.5095 5.0213 23.5092 5.0095 23.5064 5Z" fill="#EF5F13"/>
<path d="M6.79184 24.826C6.83791 24.8189 6.87183 24.8489 6.90885 24.8705C7.46068 25.1927 8.0122 25.5154 8.56372 25.8382C9.21914 26.2218 9.87457 26.6055 10.5299 26.9892C10.5472 26.9993 10.5641 27.0102 10.5828 27.0275C9.32211 27.0343 8.05973 27.0343 6.79184 27.0343C6.79184 26.3013 6.79184 25.5684 6.79184 24.826Z" fill="#EF5F13"/>
<path d="M19.4327 24.9C19.4341 24.9233 19.4366 24.9466 19.4366 24.97C19.4367 25.6527 19.4365 26.3355 19.4351 27.0276C18.2295 27.0371 17.0251 27.0371 15.8122 27.0301C15.8181 27.0101 15.831 26.9949 15.847 26.9846C15.8749 26.9665 15.9049 26.9517 15.9337 26.9348C16.0345 26.876 16.135 26.8168 16.2358 26.7581C16.3396 26.6979 16.4444 26.6393 16.5476 26.5782C16.7111 26.4815 16.8732 26.3825 17.0369 26.2861C17.1776 26.2033 17.3203 26.1235 17.4611 26.0407C17.5932 25.963 17.7232 25.8818 17.8556 25.8045C18.0427 25.6952 18.2314 25.5888 18.4187 25.4798C18.5656 25.3943 18.7109 25.3062 18.8575 25.2203C19.0272 25.1208 19.1972 25.0219 19.3676 24.9238C19.3874 24.9125 19.4109 24.9078 19.4327 24.9Z" fill="#EF5F13"/>
<path d="M22.5205 7.6134C22.5176 7.63318 22.5063 7.64706 22.5043 7.66217C22.5009 7.6886 22.5029 7.7158 22.5029 7.74262C22.5029 8.98543 22.5029 10.2282 22.503 11.471C22.503 11.604 22.4932 11.5852 22.6097 11.6456C22.8025 11.7456 22.9953 11.8457 23.1879 11.9461C23.3449 12.028 23.5016 12.1104 23.6584 12.1927C23.8123 12.2733 23.9662 12.3538 24.1199 12.4348C24.2322 12.4939 24.3439 12.5541 24.4562 12.6133C24.6098 12.6943 24.7639 12.7746 24.9177 12.8555C25.0359 12.9177 25.1537 12.9806 25.2718 13.0431C25.4077 13.1149 25.5435 13.1867 25.6795 13.2582C25.8274 13.3359 25.9752 13.4138 26.1235 13.4906C26.3877 13.6274 26.655 13.7582 26.9158 13.9013C27.1299 14.0188 27.3501 14.1237 27.5667 14.2359C27.819 14.3665 28.0718 14.4962 28.3238 14.6271C28.4246 14.6794 28.5237 14.7349 28.6245 14.7872C28.6507 14.8007 28.6802 14.8074 28.7159 14.8174C28.7237 14.8455 28.7237 14.8734 28.7237 14.9098C28.6995 14.9079 28.6744 14.8992 28.6509 14.8871C28.0035 14.5528 27.3551 14.2201 26.709 13.883C25.7966 13.407 24.8859 12.9276 23.9744 12.45C23.4655 12.1834 22.9564 11.9173 22.4474 11.6509C22.4209 11.637 22.3949 11.622 22.3664 11.6063C22.3647 11.5857 22.3618 11.566 22.3618 11.5464C22.3618 10.2236 22.3621 8.90082 22.3675 7.56732C22.3774 7.55388 22.3805 7.55004 22.3823 7.54498C22.427 7.56597 22.4717 7.58703 22.5205 7.6134Z" fill="#DD5D19"/>
<path d="M23.4984 5C23.5103 5.0095 23.5106 5.0213 23.5166 5.02797C23.5252 5.03759 23.5373 5.04464 23.549 5.05082C23.6816 5.12123 23.8144 5.19149 23.9474 5.26134C24.1126 5.34812 24.2781 5.43425 24.4432 5.52111C24.5495 5.57703 24.6556 5.63353 24.7614 5.69022C24.9405 5.78612 25.1192 5.88299 25.2986 5.97821C25.3868 6.02501 25.4767 6.06856 25.5655 6.11437C25.788 6.22925 26.0105 6.34421 26.2326 6.45984C26.4129 6.55373 26.5927 6.64858 26.7727 6.74304C26.8939 6.80666 27.0148 6.87072 27.1363 6.93389C27.3402 7.04019 27.5447 7.14566 27.7486 7.25197C27.9054 7.3335 28.0617 7.41562 28.218 7.49773C28.351 7.56749 28.4834 7.63827 28.6169 7.70701C28.646 7.72198 28.6787 7.7303 28.7172 7.74182C28.7249 7.76992 28.7249 7.79789 28.7249 7.8343C28.7036 7.8336 28.6817 7.82579 28.6612 7.81517C28.1418 7.54547 27.6222 7.2761 27.1033 7.00538C26.4603 6.66989 25.8174 6.33411 25.1754 5.99688C24.5806 5.68452 23.9869 5.37016 23.3929 5.05642C23.3664 5.04241 23.3412 5.02582 23.3111 5.00522C23.3676 5 23.4284 5 23.4984 5Z" fill="#DE5F1C"/>
<path d="M19.4346 24.8923C19.4109 24.9082 19.3873 24.9128 19.3676 24.9242C19.1972 25.0223 19.0271 25.1212 18.8574 25.2206C18.7109 25.3066 18.5655 25.3946 18.4186 25.4801C18.2314 25.5891 18.0426 25.6956 17.8555 25.8049C17.7232 25.8822 17.5931 25.9634 17.461 26.0411C17.3202 26.1239 17.1776 26.2036 17.0368 26.2865C16.8732 26.3829 16.7111 26.4819 16.5476 26.5786C16.4443 26.6397 16.3396 26.6983 16.2358 26.7585C16.1349 26.8171 16.0344 26.8764 15.9337 26.9352C15.9049 26.952 15.8749 26.9669 15.847 26.985C15.831 26.9953 15.8181 27.0105 15.8028 27.0305C15.7609 27.0374 15.7199 27.0374 15.6701 27.0374C15.6826 27.022 15.7026 27.0046 15.7252 26.9914C16.9284 26.2867 18.1319 25.5824 19.3355 24.8782C19.364 24.8616 19.3907 24.8404 19.4301 24.835C19.4324 24.8526 19.4345 24.8684 19.4346 24.8923Z" fill="#DF6321"/>
<path d="M19.4343 21.6823C19.3927 21.6748 19.3509 21.6615 19.3135 21.6404C19.1974 21.5747 19.0836 21.5052 18.9678 21.4389C18.8432 21.3677 18.7173 21.2988 18.5923 21.2283C18.5197 21.1873 18.4479 21.1449 18.3756 21.1033C18.309 21.0651 18.2427 21.0266 18.1756 20.9893C18.0968 20.9456 18.017 20.9035 17.9383 20.8598C17.8245 20.7966 17.7113 20.7323 17.5975 20.6691C17.5187 20.6254 17.4391 20.5832 17.3603 20.5394C17.1706 20.4341 16.9804 20.3298 16.792 20.2223C16.6443 20.1379 16.4998 20.0482 16.3524 19.9632C16.2252 19.8899 16.0955 19.8208 15.9677 19.7486C15.8718 19.6945 15.7769 19.6386 15.6819 19.583C15.6186 19.5459 15.5561 19.5075 15.4928 19.4705C15.3229 19.3712 15.1529 19.272 14.9825 19.1735C14.8351 19.0885 14.686 19.0063 14.5395 18.92C14.3844 18.8286 14.2315 18.7331 14.0771 18.6405C13.9541 18.5668 13.8299 18.4949 13.7066 18.4217C13.5661 18.3383 13.4264 18.2534 13.2855 18.1708C13.179 18.1083 13.0704 18.0494 12.9638 17.9872C12.8168 17.9015 12.6712 17.8137 12.5242 17.7281C12.4521 17.686 12.3779 17.6477 12.3054 17.6063C12.1781 17.5335 12.0514 17.4593 11.9241 17.3863C11.8575 17.3482 11.7903 17.3112 11.7229 17.2742C11.5708 17.1906 11.4177 17.1087 11.2664 17.0236C11.1501 16.9583 11.0363 16.8887 10.9208 16.8218C10.8169 16.7616 10.712 16.7031 10.608 16.643C10.5098 16.5862 10.4124 16.5281 10.3145 16.4709C10.208 16.4086 10.1011 16.3469 9.99446 16.2848C9.86479 16.2091 9.73487 16.1339 9.60564 16.0574C9.47079 15.9776 9.33662 15.8965 9.20221 15.816C8.99913 15.6942 8.79637 15.5719 8.59292 15.4508C8.42945 15.3536 8.26492 15.2583 8.10133 15.1614C8.04969 15.1308 8.00027 15.0965 7.94844 15.0663C7.84465 15.0059 7.7396 14.9475 7.6355 14.8876C7.48235 14.7994 7.32262 14.7224 7.17897 14.618C7.09854 14.5596 7.01817 14.501 6.94147 14.4452C6.94292 14.4108 6.96634 14.407 6.9826 14.3983C7.11822 14.326 7.25478 14.2556 7.39021 14.1829C7.55791 14.0929 7.72498 14.0018 7.89192 13.9104C8.02071 13.84 8.1493 13.769 8.27719 13.6969C8.42249 13.615 8.56659 13.5309 8.71189 13.449C8.83979 13.3769 8.96914 13.3073 9.09678 13.2348C9.21278 13.1688 9.32694 13.0998 9.44243 13.033C9.54932 12.9712 9.6576 12.9118 9.76398 12.8491C9.97952 12.7222 10.1938 12.5932 10.4093 12.4663C10.5502 12.3834 10.6927 12.3033 10.8339 12.2208C10.9317 12.1636 11.0284 12.1042 11.126 12.0467C11.1864 12.0112 11.2479 11.9774 11.3086 11.9425C11.4849 11.8409 11.661 11.7388 11.8374 11.6375C11.904 11.5993 11.9717 11.563 12.0388 11.5257C12.2283 11.4202 12.4178 11.3146 12.6074 11.2092C12.7357 11.1378 12.8643 11.0669 12.9927 10.9957C13.0569 10.96 13.1209 10.9239 13.1917 10.8849C13.2281 10.8969 13.2587 10.9102 13.2873 10.9269C14.2461 11.4879 15.2035 12.0513 16.1639 12.6094C16.6672 12.9018 17.1749 13.1869 17.6826 13.4716C18.237 13.7824 18.7938 14.089 19.3495 14.3975C19.3871 14.4183 19.4229 14.4445 19.4745 14.4364C19.4764 14.4657 19.4797 14.4919 19.4795 14.518C19.4752 15.3343 19.4707 16.1506 19.466 16.9669C19.4595 18.0922 19.4531 19.2174 19.4462 20.3427C19.4435 20.7861 19.4395 21.2295 19.4343 21.6823Z" fill="#EF5F13"/>
<path d="M13.1696 7.7712C13.1752 7.76365 13.1862 7.76397 13.1946 7.75936C13.2415 7.73389 13.2841 7.74535 13.3272 7.76992C13.3997 7.8112 13.4733 7.85024 13.5459 7.89139C13.6328 7.94074 13.7189 7.99143 13.8057 8.04122C13.9444 8.12077 14.0833 8.20032 14.2223 8.27936C14.3353 8.34362 14.4491 8.40653 14.5619 8.47111C14.6804 8.53907 14.7981 8.60845 14.9164 8.67687C14.9799 8.7136 15.0439 8.74951 15.1075 8.78592C15.2117 8.84551 15.3159 8.9049 15.4198 8.96499C15.489 9.00506 15.5575 9.04634 15.6264 9.08672C15.7674 9.16922 15.9084 9.25152 16.0495 9.33376C16.1589 9.39744 16.2687 9.46055 16.3779 9.52461C16.5101 9.60224 16.6416 9.68096 16.7738 9.75853C16.8802 9.82093 16.9872 9.88218 17.0936 9.94439C17.2259 10.0218 17.3581 10.0994 17.4901 10.1773C17.5848 10.2332 17.679 10.2898 17.7734 10.3462C17.9479 10.4504 18.122 10.5553 18.2969 10.6589C18.4603 10.7557 18.6252 10.85 18.788 10.9478C19.0079 11.0799 19.2264 11.2143 19.4457 11.3475C19.4598 11.3561 19.4757 11.3619 19.4972 11.3702C19.5037 11.3975 19.5037 11.4237 19.5037 11.4474C19.474 11.4681 19.4558 11.4474 19.4372 11.4363C19.2735 11.3384 19.1105 11.2396 18.947 11.1416C17.567 10.3145 16.1786 9.50208 14.7866 8.69562C14.2687 8.39552 13.7464 8.10298 13.2261 7.80691C13.2087 7.79706 13.1914 7.78688 13.1696 7.7712Z" fill="#DE5F1C"/>
<path d="M6.87094 21.8011C6.92119 21.7631 6.97694 21.77 7.02814 21.7996C7.13831 21.8633 7.24628 21.9308 7.35512 21.9968C7.507 22.0887 7.65863 22.1808 7.8107 22.2723C8.01448 22.3949 8.21825 22.5173 8.42253 22.6389C8.54922 22.7143 8.67712 22.7876 8.80394 22.8627C8.93936 22.9429 9.0734 23.0254 9.20933 23.1047C9.36273 23.1942 9.51797 23.2805 9.67162 23.3696C9.80198 23.4451 9.93108 23.5229 10.0608 23.5996C10.1214 23.6354 10.1819 23.6711 10.2429 23.7061C10.4406 23.8193 10.6385 23.9324 10.8365 24.0449C11.0026 24.1393 11.1699 24.2316 11.3353 24.3271C11.4832 24.4124 11.6289 24.5017 11.7766 24.5874C11.8926 24.6546 12.0105 24.7184 12.127 24.7847C12.2202 24.8377 12.3126 24.892 12.4054 24.9457C12.4895 24.9943 12.5737 25.0428 12.6577 25.0917C12.7705 25.1575 12.883 25.2238 12.9958 25.2895C13.0508 25.3216 13.1056 25.3542 13.1618 25.384C13.182 25.3947 13.2061 25.3977 13.2364 25.4051C13.2289 25.4184 13.2139 25.4316 13.1975 25.4428C13.1839 25.4521 13.1685 25.4588 13.1513 25.4682C13.121 25.452 13.0913 25.4371 13.0626 25.4206C12.0084 24.8143 10.953 24.21 9.90039 23.6009C8.88551 23.0137 7.87728 22.4153 6.87094 21.8011Z" fill="#DE5F1C"/>
<path d="M22.3782 7.54498C22.3817 7.55234 22.3783 7.55638 22.3697 7.5606C22.3682 7.55567 22.3706 7.54927 22.3782 7.54498Z" fill="#E06A2C"/>
<path d="M22.3912 14.6297C22.3907 14.6355 22.386 14.6371 22.3741 14.6397C22.3652 14.6242 22.3735 14.6211 22.3912 14.6297Z" fill="#E06A2C"/>
</g>
</svg>
