<?xml version="1.0" encoding="UTF-8"?>
<svg id="Layer_1" xmlns="http://www.w3.org/2000/svg" viewBox="0 0 1920 1080">
  <defs>
    <style>
      .cls-1 {
        fill: #18484c;
      }

      .cls-2 {
        fill: #96ca4d;
      }

      .cls-3 {
        fill: none;
      }

      .cls-4 {
        fill: #333;
      }

      .cls-5 {
        fill: #96ca4b;
      }
    </style>
  </defs>
  <path id="Path_263" class="cls-1" d="M1634.34,463.45h-46.67c-2.97-122.43-103.16-220.78-226.28-220.78s-223.32,98.35-226.28,220.78h-46.32c2.79-147.18,124.08-267.45,272.8-267.45,148.68-.25,270.08,118.79,272.76,267.45"/>
  <path id="Path_264" class="cls-2" d="M1342.44,693.14v47.87c-139.1-9.61-249.49-123.58-253.47-264.14h46.87c2.58,75.81,43.93,144.88,105.91,183.54-3.72-11.44-6.35-24.24-6.35-36.85v-305.07h46.82v189.54h46.82v46.84h-46.82v68.68c0,28.84,18.15,53.75,42.62,65.26,5.54,2.55,11.51,4.01,17.6,4.32"/>
  <path id="Path_265" class="cls-5" d="M1634.45,476.87c-2.84,101.22-60.76,188.64-144.83,233.42v-77.36c0-2.23-.16-4.19-.16-6.4,0-39.76-32.83-71.65-72.57-71.65h-74.46v-46.83h61.42c39.74,0,72.08-31.62,72.08-71.36s-32.34-71.36-72.08-71.36h-108.25v-46.83h108.25c65.65,0,119.08,52.76,119.08,118.44,0,36.26-16.3,68.31-41.95,90.09,27.58,17.62,48.77,41.23,51,90.29,39.35-43.72,55.12-102.44,55.73-140.45h46.73"/>
  <path id="Path_266" class="cls-4" d="M1116.54,802.92h-18.96c-.62,0-1.16-.41-1.34-1.01l-6.02-21.12c-.21-.74.22-1.5.95-1.71.12-.04.25-.05.38-.05h72.41c.62,0,1.17.42,1.34,1.02l5.82,21.12c.2.74-.23,1.5-.97,1.71-.12.03-.25.05-.37.05h-23.2c-.77,0-1.39.62-1.39,1.39v78.3c0,.77-.62,1.39-1.39,1.39h-24.49c-.77,0-1.39-.62-1.39-1.39h0v-78.3c0-.77-.62-1.39-1.39-1.39"/>
  <path id="Path_267" class="cls-4" d="M1230.38,865.36h-42.84c-.49,0-.95.26-1.2.69l-10.09,17.27c-.25.43-.71.69-1.2.69h-24.93c-.77,0-1.39-.62-1.39-1.39,0-.24.06-.48.18-.69l58.88-102.28c.38-.66,1.23-.89,1.89-.51.21.12.39.3.51.51l58.8,102.28c.38.66.15,1.51-.51,1.89-.21.12-.45.18-.69.18h-24.94c-.49,0-.95-.26-1.2-.69l-10.09-17.27c-.25-.43-.71-.69-1.2-.69M1218.67,843.89l-8.48-14.51c-.39-.66-1.24-.88-1.9-.5-.2.12-.38.29-.5.49l-8.54,14.51c-.39.66-.17,1.51.49,1.9.21.13.46.19.7.19h17.02c.77,0,1.39-.62,1.39-1.39,0-.25-.07-.49-.19-.7"/>
  <path id="Path_268" class="cls-4" d="M1336.87,884h-61.53c-.77,0-1.39-.62-1.39-1.39v-102.12c0-.77.62-1.39,1.38-1.39l24.49-.07c.77,0,1.39.62,1.39,1.39h0v78.23c0,.77.62,1.39,1.39,1.39h40.7c.77,0,1.39.62,1.39,1.39,0,.14-.02.27-.06.4l-6.44,21.19c-.18.58-.72.98-1.33.98"/>
  <path id="Path_269" class="cls-4" d="M1352.38,882.39v-101.97c0-.77.62-1.39,1.39-1.39h29.56c8.78,0,16.54,1.08,23.28,3.25,6.63,2.12,11.83,5.6,15.59,10.43,3.71,4.83,5.56,11.07,5.56,18.72-.03,5.73-1.72,11.33-4.86,16.13-2.67,4.41-6.66,7.88-11.4,9.91-.71.29-1.06,1.1-.77,1.81.03.07.06.13.09.19l25.48,42.36c.39.66.18,1.51-.47,1.9-.22.13-.46.2-.72.2h-28.62c-.51,0-.97-.28-1.22-.72l-25.31-46.33h-.31v45.51c0,.77-.62,1.39-1.39,1.39h-24.49c-.77,0-1.39-.62-1.39-1.39M1379.65,829.25c0,.78.64,1.4,1.42,1.4,0,0,0,0,.01,0,3.96-.1,7.3-.61,10.01-1.54,2.8-.85,5.25-2.59,6.98-4.96,1.62-2.27,2.43-5.2,2.43-8.8,0-5.42-1.72-9.12-5.17-11.1-3.26-1.83-8.01-2.82-14.25-2.94-.78,0-1.41.61-1.42,1.39,0,0,0,0,0,0v26.54Z"/>
  <path id="Path_270" class="cls-4" d="M1517.5,786.39c7.93,4.54,14.52,11.08,19.12,18.97,4.69,7.96,7.14,17.04,7.08,26.28.08,9.22-2.37,18.28-7.08,26.21-9.43,16.12-26.72,25.99-45.4,25.92-18.68.05-35.99-9.82-45.47-25.92-4.71-7.93-7.16-16.99-7.08-26.21-.06-9.24,2.39-18.32,7.08-26.28,4.64-7.88,11.25-14.42,19.19-18.97,16.29-9.27,36.26-9.27,52.54,0M1477.15,806.34c-8.67,5.51-13.96,15.02-14.08,25.29,0,5.03,1.33,9.97,3.85,14.33,2.42,4.48,5.94,8.28,10.23,11.03,8.55,5.52,19.54,5.52,28.09,0,4.29-2.77,7.83-6.56,10.3-11.03,5.04-8.89,5.04-19.78,0-28.67-2.44-4.45-5.96-8.22-10.23-10.96-4.2-2.71-9.09-4.15-14.08-4.15-5-.03-9.9,1.41-14.08,4.15"/>
  <path id="Path_271" class="cls-4" d="M1554.6,882.61v-102.19c0-.77.62-1.39,1.39-1.39h31.84c7.42,0,13.74.54,18.96,1.63,4.91.92,9.59,2.77,13.79,5.47,3.88,2.59,6.98,6.2,8.93,10.43,2.09,4.39,3.13,9.74,3.13,16.05.08,4.82-.99,9.59-3.13,13.91-2.09,4.1-5.06,7.68-8.7,10.5-3.95,3.06-8.44,5.34-13.24,6.73-5.21,1.58-10.62,2.38-16.06,2.37h-8.17c-.77,0-1.39.62-1.39,1.39h0v35.1c0,.77-.62,1.39-1.39,1.39h-24.57c-.77,0-1.39-.62-1.39-1.39M1581.95,802.68v19.79c0,.77.62,1.39,1.39,1.39h6.45c5.01,0,8.88-.99,11.6-2.96,2.66-1.92,4-4.73,4-8.43,0-3.6-1.33-6.36-4-8.29-2.72-1.92-6.58-2.89-11.6-2.89h-6.45c-.77,0-1.39.62-1.39,1.39"/>
  <rect class="cls-3" x="1088.79" y="196" width="545.71" height="688"/>
  <g>
    <path class="cls-4" d="M286.42,572.13l28.76-71.4h10.71l28.76,71.4h-10.71l-7.65-19.07h-31.52l-7.65,19.07h-10.71ZM308.25,544.08h24.58l-12.24-30.7-12.34,30.7Z"/>
    <path class="cls-4" d="M402.6,572.13l-21.22-51h9.89l16.22,39.88,16.12-39.88h10.1l-21.32,51h-9.79Z"/>
    <path class="cls-4" d="M462.47,573.35c-4.96,0-9.35-1.14-13.16-3.42-3.81-2.28-6.8-5.42-8.98-9.43-2.18-4.01-3.26-8.63-3.26-13.87s1.09-9.86,3.26-13.87c2.18-4.01,5.18-7.16,9.03-9.44,3.84-2.28,8.24-3.42,13.21-3.42,4.69,0,8.81,1.17,12.34,3.52,3.54,2.35,6.31,5.68,8.31,10,2.01,4.32,3.01,9.4,3.01,15.25h-39.27c.34,5.03,2.02,8.96,5.05,11.78,3.02,2.82,6.75,4.23,11.17,4.23,3.4,0,6.24-.8,8.52-2.4,2.28-1.6,4.06-3.62,5.35-6.07l8.36,3.88c-1.36,2.65-3.13,4.98-5.3,6.99-2.18,2.01-4.74,3.55-7.7,4.64-2.96,1.09-6.27,1.63-9.95,1.63ZM447.58,541.02h28.25c-.2-2.72-.94-5.01-2.19-6.88-1.26-1.87-2.86-3.31-4.79-4.34-1.94-1.02-4.1-1.53-6.48-1.53s-4.56.49-6.73,1.48c-2.18.99-4,2.43-5.46,4.34-1.46,1.9-2.33,4.22-2.6,6.94Z"/>
    <path class="cls-4" d="M495.82,572.13v-51h9.08l.41,7.45c1.7-2.79,3.89-4.93,6.58-6.43,2.69-1.49,5.76-2.24,9.23-2.24,4.01,0,7.5.81,10.46,2.45s5.24,4.17,6.83,7.6c1.6,3.43,2.4,7.94,2.4,13.51v28.66h-9.69v-26.11c0-4.62-.53-8.14-1.58-10.56-1.06-2.41-2.52-4.1-4.39-5.05-1.87-.95-4.03-1.46-6.48-1.53-4.15,0-7.38,1.46-9.69,4.39-2.31,2.92-3.47,7.04-3.47,12.34v26.52h-9.69Z"/>
    <path class="cls-4" d="M572.73,573.35c-5.1,0-9.04-1.31-11.83-3.93-2.79-2.62-4.18-6.38-4.18-11.27v-28.66h-8.67v-8.37h8.67v-15.91h9.69v15.91h14.48v8.37h-14.48v27.23c0,2.52.63,4.44,1.89,5.76,1.26,1.33,3.08,1.99,5.46,1.99.68,0,1.43-.13,2.24-.41s1.8-.82,2.96-1.63l3.67,7.55c-1.77,1.16-3.45,2.01-5.05,2.55-1.6.54-3.21.82-4.85.82Z"/>
    <path class="cls-4" d="M610.57,573.35c-3.94,0-7.38-.82-10.3-2.45-2.92-1.63-5.2-4.18-6.83-7.65-1.63-3.47-2.45-7.96-2.45-13.46v-28.66h9.69v26.11c0,4.56.53,8.06,1.58,10.51,1.05,2.45,2.53,4.15,4.44,5.1,1.9.95,4.04,1.46,6.43,1.53,4.15,0,7.38-1.46,9.69-4.38,2.31-2.92,3.47-7.04,3.47-12.34v-26.52h9.59v51h-8.98l-.41-7.45c-1.7,2.79-3.89,4.93-6.58,6.43-2.69,1.49-5.8,2.24-9.33,2.24Z"/>
    <path class="cls-4" d="M649.44,572.13v-51h9.69v9.18c2.04-3.2,4.67-5.56,7.91-7.09,3.23-1.53,6.61-2.29,10.15-2.29v9.18c-3.06,0-5.97.46-8.72,1.38s-5,2.41-6.73,4.49-2.6,4.88-2.6,8.41v27.74h-9.69Z"/>
    <path class="cls-4" d="M707.58,573.35c-4.96,0-9.35-1.14-13.16-3.42-3.81-2.28-6.8-5.42-8.98-9.43-2.18-4.01-3.26-8.63-3.26-13.87s1.09-9.86,3.26-13.87c2.18-4.01,5.18-7.16,9.03-9.44,3.84-2.28,8.24-3.42,13.21-3.42,4.69,0,8.81,1.17,12.34,3.52,3.54,2.35,6.31,5.68,8.31,10,2.01,4.32,3.01,9.4,3.01,15.25h-39.27c.34,5.03,2.02,8.96,5.05,11.78,3.02,2.82,6.75,4.23,11.17,4.23,3.4,0,6.24-.8,8.52-2.4,2.28-1.6,4.06-3.62,5.35-6.07l8.36,3.88c-1.36,2.65-3.13,4.98-5.3,6.99-2.18,2.01-4.74,3.55-7.7,4.64-2.96,1.09-6.27,1.63-9.95,1.63ZM692.68,541.02h28.25c-.2-2.72-.94-5.01-2.19-6.88-1.26-1.87-2.86-3.31-4.79-4.34-1.94-1.02-4.1-1.53-6.48-1.53s-4.56.49-6.73,1.48c-2.18.99-4,2.43-5.46,4.34-1.46,1.9-2.33,4.22-2.6,6.94Z"/>
    <path class="cls-4" d="M770.92,572.13v-42.94h-9.08v-8.06h9.08v-5.61c0-5.37,1.29-9.44,3.88-12.19,2.58-2.75,6.49-4.13,11.73-4.13,1.56,0,3.26.26,5.1.77s3.71,1.21,5.61,2.09l-3.57,7.45c-1.43-.68-2.67-1.17-3.72-1.48-1.06-.3-1.96-.46-2.7-.46-2.24,0-3.91.73-5,2.19-1.09,1.46-1.63,3.72-1.63,6.78v4.59h14.08v8.06h-14.08v42.94h-9.69Z"/>
    <path class="cls-4" d="M804.17,572.13v-51h9.69v9.18c2.04-3.2,4.67-5.56,7.91-7.09,3.23-1.53,6.61-2.29,10.15-2.29v9.18c-3.06,0-5.97.46-8.72,1.38s-5,2.41-6.73,4.49-2.6,4.88-2.6,8.41v27.74h-9.69Z"/>
    <path class="cls-4" d="M862.82,573.35c-5.1,0-9.59-1.14-13.46-3.42s-6.92-5.42-9.13-9.43c-2.21-4.01-3.31-8.63-3.31-13.87s1.09-9.86,3.26-13.87c2.18-4.01,5.2-7.16,9.08-9.44,3.88-2.28,8.3-3.42,13.26-3.42s9.59,1.14,13.46,3.42c3.88,2.28,6.9,5.42,9.08,9.44,2.18,4.01,3.26,8.64,3.26,13.87s-1.09,9.86-3.26,13.87c-2.18,4.01-5.19,7.16-9.03,9.43-3.84,2.28-8.25,3.42-13.21,3.42ZM862.82,564.48c3.06,0,5.76-.76,8.11-2.29,2.35-1.53,4.2-3.62,5.56-6.27,1.36-2.65,2.04-5.75,2.04-9.28s-.68-6.63-2.04-9.28c-1.36-2.65-3.25-4.74-5.66-6.27-2.41-1.53-5.15-2.29-8.21-2.29s-5.88.77-8.26,2.29c-2.38,1.53-4.25,3.64-5.61,6.32-1.36,2.69-2.04,5.76-2.04,9.23s.68,6.63,2.04,9.28c1.36,2.65,3.26,4.74,5.71,6.27,2.45,1.53,5.24,2.29,8.36,2.29Z"/>
    <path class="cls-4" d="M898.93,572.13v-51h9.08l.41,7.04c1.63-2.72,3.67-4.78,6.12-6.17,2.45-1.39,5.27-2.09,8.47-2.09,4.08,0,7.55.94,10.4,2.8,2.86,1.87,4.93,4.71,6.22,8.52,1.49-3.67,3.6-6.48,6.32-8.41,2.72-1.94,5.95-2.91,9.69-2.91,5.78,0,10.3,1.89,13.57,5.66,3.26,3.77,4.86,9.57,4.79,17.39v29.17h-9.59v-26.11c0-4.62-.49-8.14-1.48-10.56-.99-2.41-2.29-4.1-3.93-5.05s-3.54-1.46-5.71-1.53c-3.81,0-6.75,1.46-8.82,4.39-2.08,2.92-3.11,7.04-3.11,12.34v26.52h-9.69v-26.11c0-4.62-.48-8.14-1.43-10.56-.95-2.41-2.26-4.1-3.93-5.05-1.67-.95-3.59-1.46-5.76-1.53-3.81,0-6.75,1.46-8.82,4.39-2.08,2.92-3.11,7.04-3.11,12.34v26.52h-9.69Z"/>
  </g>
</svg>