<?xml version="1.0" encoding="UTF-8" standalone="no"?>
<svg
   id="Layer_1"
   viewBox="0 0 651 1080"
   version="1.1"
   sodipodi:docname="talrop.svg"
   width="651"
   height="1080"
   inkscape:version="1.4.2 (f4327f4, 2025-05-13)"
   xmlns:inkscape="http://www.inkscape.org/namespaces/inkscape"
   xmlns:sodipodi="http://sodipodi.sourceforge.net/DTD/sodipodi-0.dtd"
   xmlns="http://www.w3.org/2000/svg"
   xmlns:svg="http://www.w3.org/2000/svg">
  <sodipodi:namedview
     id="namedview1"
     pagecolor="#ffffff"
     bordercolor="#000000"
     borderopacity="0.25"
     inkscape:showpageshadow="2"
     inkscape:pageopacity="0.0"
     inkscape:pagecheckerboard="0"
     inkscape:deskcolor="#d1d1d1"
     inkscape:zoom="0.50610513"
     inkscape:cx="87.926396"
     inkscape:cy="481.12533"
     inkscape:window-width="1920"
     inkscape:window-height="991"
     inkscape:window-x="-9"
     inkscape:window-y="-9"
     inkscape:window-maximized="1"
     inkscape:current-layer="Layer_1"
     showgrid="false" />
  <defs
     id="defs1">
    <style
       id="style1">
      .cls-4{fill:#333}
    </style>
  </defs>
  <path
     id="Path_263"
     d="M 598.34,463.45 H 551.67 C 548.7,341.02 448.51,242.67 325.39,242.67 202.27,242.67 102.07,341.02 99.11,463.45 H 52.79 C 55.58,316.27 176.87,196 325.59,196 474.27,195.75 595.67,314.79 598.35,463.45"
     style="fill:#18484c" />
  <path
     id="Path_264"
     d="m 306.44,693.14 v 47.87 C 167.34,731.4 56.95,617.43 52.97,476.87 h 46.87 c 2.58,75.81 43.93,144.88 105.91,183.54 -3.72,-11.44 -6.35,-24.24 -6.35,-36.85 V 318.49 h 46.82 v 189.54 h 46.82 v 46.84 h -46.82 v 68.68 c 0,28.84 18.15,53.75 42.62,65.26 a 47.9,47.9 0 0 0 17.6,4.32"
     style="fill:#96ca4d" />
  <path
     id="Path_265"
     d="m 598.45,476.87 c -2.84,101.22 -60.76,188.64 -144.83,233.42 v -77.36 c 0,-2.23 -0.16,-4.19 -0.16,-6.4 0,-39.76 -32.83,-71.65 -72.57,-71.65 h -74.46 v -46.83 h 61.42 c 39.74,0 72.08,-31.62 72.08,-71.36 0,-39.74 -32.34,-71.36 -72.08,-71.36 H 259.6 V 318.5 h 108.25 c 65.65,0 119.08,52.76 119.08,118.44 0,36.26 -16.3,68.31 -41.95,90.09 27.58,17.62 48.77,41.23 51,90.29 39.35,-43.72 55.12,-102.44 55.73,-140.45 h 46.73"
     style="fill:#96ca4b" />
  <path
     id="Path_266"
     class="cls-4"
     d="M 80.54,802.92 H 61.58 c -0.62,0 -1.16,-0.41 -1.34,-1.01 l -6.02,-21.12 c -0.21,-0.74 0.22,-1.5 0.95,-1.71 0.12,-0.04 0.25,-0.05 0.38,-0.05 h 72.41 c 0.62,0 1.17,0.42 1.34,1.02 l 5.82,21.12 a 1.396,1.396 0 0 1 -1.34,1.76 h -23.2 c -0.77,0 -1.39,0.62 -1.39,1.39 v 78.3 c 0,0.77 -0.62,1.39 -1.39,1.39 H 83.31 c -0.77,0 -1.39,-0.62 -1.39,-1.39 v -78.3 c 0,-0.77 -0.62,-1.39 -1.39,-1.39" />
  <path
     id="Path_267"
     class="cls-4"
     d="m 194.38,865.36 h -42.84 c -0.49,0 -0.95,0.26 -1.2,0.69 l -10.09,17.27 c -0.25,0.43 -0.71,0.69 -1.2,0.69 h -24.93 c -0.77,0 -1.39,-0.62 -1.39,-1.39 0,-0.24 0.06,-0.48 0.18,-0.69 l 58.88,-102.28 a 1.388,1.388 0 0 1 2.4,0 l 58.8,102.28 c 0.38,0.66 0.15,1.51 -0.51,1.89 -0.21,0.12 -0.45,0.18 -0.69,0.18 h -24.94 c -0.49,0 -0.95,-0.26 -1.2,-0.69 l -10.09,-17.27 a 1.39,1.39 0 0 0 -1.2,-0.69 m -11.69,-21.46 -8.48,-14.51 c -0.39,-0.66 -1.24,-0.88 -1.9,-0.5 -0.2,0.12 -0.38,0.29 -0.5,0.49 l -8.54,14.51 a 1.387,1.387 0 0 0 1.19,2.09 h 17.02 a 1.387,1.387 0 0 0 1.2,-2.09" />
  <path
     id="Path_268"
     class="cls-4"
     d="m 300.87,884 h -61.53 c -0.77,0 -1.39,-0.62 -1.39,-1.39 V 780.49 c 0,-0.77 0.62,-1.39 1.38,-1.39 l 24.49,-0.07 c 0.77,0 1.39,0.62 1.39,1.39 v 78.23 c 0,0.77 0.62,1.39 1.39,1.39 h 40.7 a 1.387,1.387 0 0 1 1.33,1.79 l -6.44,21.19 c -0.18,0.58 -0.72,0.98 -1.33,0.98" />
  <path
     id="Path_269"
     class="cls-4"
     d="M 316.38,882.39 V 780.42 c 0,-0.77 0.62,-1.39 1.39,-1.39 h 29.56 c 8.78,0 16.54,1.08 23.28,3.25 6.63,2.12 11.83,5.6 15.59,10.43 3.71,4.83 5.56,11.07 5.56,18.72 a 29.75,29.75 0 0 1 -4.86,16.13 24.7,24.7 0 0 1 -11.4,9.91 c -0.71,0.29 -1.06,1.1 -0.77,1.81 0.03,0.07 0.06,0.13 0.09,0.19 l 25.48,42.36 c 0.39,0.66 0.18,1.51 -0.47,1.9 -0.22,0.13 -0.46,0.2 -0.72,0.2 h -28.62 c -0.51,0 -0.97,-0.28 -1.22,-0.72 l -25.31,-46.33 h -0.31 v 45.51 c 0,0.77 -0.62,1.39 -1.39,1.39 h -24.49 c -0.77,0 -1.39,-0.62 -1.39,-1.39 m 27.27,-53.14 c 0,0.78 0.64,1.4 1.42,1.4 h 0.01 c 3.96,-0.1 7.3,-0.61 10.01,-1.54 2.8,-0.85 5.25,-2.59 6.98,-4.96 1.62,-2.27 2.43,-5.2 2.43,-8.8 0,-5.42 -1.72,-9.12 -5.17,-11.1 -3.26,-1.83 -8.01,-2.82 -14.25,-2.94 -0.78,0 -1.41,0.61 -1.42,1.39 v 26.54 z" />
  <path
     id="Path_270"
     class="cls-4"
     d="m 481.5,786.39 a 52.1,52.1 0 0 1 19.12,18.97 51.1,51.1 0 0 1 7.08,26.28 50.46,50.46 0 0 1 -7.08,26.21 52.35,52.35 0 0 1 -45.4,25.92 52.61,52.61 0 0 1 -45.47,-25.92 50.46,50.46 0 0 1 -7.08,-26.21 51.1,51.1 0 0 1 7.08,-26.28 52.65,52.65 0 0 1 19.19,-18.97 53.11,53.11 0 0 1 52.54,0 m -40.33,19.95 a 30.37,30.37 0 0 0 -14.08,25.29 c 0,5.03 1.33,9.97 3.85,14.33 a 30.1,30.1 0 0 0 10.23,11.03 25.89,25.89 0 0 0 28.09,0 30.95,30.95 0 0 0 10.3,-11.03 29.07,29.07 0 0 0 0,-28.67 30.4,30.4 0 0 0 -10.23,-10.96 c -4.2,-2.71 -9.09,-4.15 -14.08,-4.15 -5,-0.03 -9.9,1.41 -14.08,4.15" />
  <path
     id="Path_271"
     class="cls-4"
     d="M 518.6,882.61 V 780.42 c 0,-0.77 0.62,-1.39 1.39,-1.39 h 31.84 c 7.42,0 13.74,0.54 18.96,1.63 4.91,0.92 9.59,2.77 13.79,5.47 3.88,2.59 6.98,6.2 8.93,10.43 2.09,4.39 3.13,9.74 3.13,16.05 0.08,4.82 -0.99,9.59 -3.13,13.91 a 31.2,31.2 0 0 1 -8.7,10.5 39.6,39.6 0 0 1 -13.24,6.73 55,55 0 0 1 -16.06,2.37 h -8.17 c -0.77,0 -1.39,0.62 -1.39,1.39 v 35.1 c 0,0.77 -0.62,1.39 -1.39,1.39 h -24.57 c -0.77,0 -1.39,-0.62 -1.39,-1.39 m 27.35,-79.93 v 19.79 c 0,0.77 0.62,1.39 1.39,1.39 h 6.45 c 5.01,0 8.88,-0.99 11.6,-2.96 2.66,-1.92 4,-4.73 4,-8.43 0,-3.6 -1.33,-6.36 -4,-8.29 -2.72,-1.92 -6.58,-2.89 -11.6,-2.89 h -6.45 c -0.77,0 -1.39,0.62 -1.39,1.39" />
  <path
     style="fill:none"
     d="M 52.79,196 H 598.5 V 884 H 52.79 Z"
     id="path1" />
  <g
     id="g1" />
</svg>
